<svg width="229" height="61" viewBox="0 0 229 61" fill="none" xmlns="http://www.w3.org/2000/svg">
<path d="M19.8804 49.2502L21.3272 48.1134L8.85507 40.9478L7.23525 42.2205L11.2623 56.0215L12.7091 54.8847L11.8082 51.8282L17.1238 47.6517L19.8804 49.2502ZM8.9674 42.7417L15.8162 46.7969L11.2713 50.3679L8.9674 42.7417Z" fill="black"/>
<path d="M36.8064 38.2343L42.1976 35.4233C44.3611 34.2952 44.9452 32.3441 43.9558 30.4466C43.2161 29.0278 41.4948 28.2788 40.1339 28.7402C41.0955 27.9456 41.5708 26.4347 40.7941 24.9451C39.8694 23.1716 37.963 22.5868 35.9058 23.6594L30.6388 26.4057L36.8064 38.2343ZM34.7831 30.7633L32.795 26.9505L36.3418 25.1012C37.6719 24.4077 38.8251 24.889 39.3799 25.9531C39.9439 27.0349 39.6599 28.2205 38.3299 28.914L34.7831 30.7633ZM37.5941 36.1545L35.4673 32.0757L39.0851 30.1893C40.5393 29.4311 41.7834 30.0004 42.3475 31.0822C43.004 32.3413 42.5951 33.5469 41.2118 34.2682L37.5941 36.1545Z" fill="black"/>
<path d="M52.9048 30.4359L54.4384 29.8007L49.3338 17.476L47.8001 18.1112L52.9048 30.4359Z" fill="black"/>
<path d="M65.2679 25.8255L66.8498 25.3225L63.2561 14.0201L67.2968 12.7353L66.8483 11.3249L57.2041 14.3914L57.6525 15.8018L61.6741 14.5231L65.2679 25.8255Z" fill="black"/>
<path d="M98.5307 18.7801L100.356 18.5495L93.3467 5.98891L91.303 6.24708L87.6571 20.1536L89.4826 19.923L90.2823 16.8385L96.989 15.9913L98.5307 18.7801ZM92.5203 7.58507L96.3075 14.5856L90.573 15.31L92.5203 7.58507Z" fill="black"/>
<path d="M107.792 18.1071L113.871 18.0498C116.311 18.0268 117.717 16.5534 117.697 14.4135C117.682 12.8136 116.488 11.3648 115.066 11.1582C116.284 10.8867 117.393 9.7562 117.377 8.07628C117.359 6.07636 115.925 4.68981 113.606 4.71167L107.666 4.76765L107.792 18.1071ZM109.38 10.5317L109.34 6.23194L113.34 6.19424C114.839 6.18011 115.648 7.13253 115.66 8.33247C115.671 9.55242 114.88 10.4799 113.38 10.4941L109.38 10.5317ZM109.438 16.6115L109.394 12.0117L113.474 11.9732C115.114 11.9578 115.964 13.0298 115.976 14.2498C115.989 15.6697 115.077 16.5583 113.517 16.573L109.438 16.6115Z" fill="black"/>
<path d="M125.863 11.6574C125.418 15.5723 127.727 18.8135 131.662 19.2604C135.577 19.705 138.573 17.0664 139.018 13.1516C139.463 9.23672 137.134 5.9932 133.219 5.54858C129.284 5.1017 126.307 7.74262 125.863 11.6574ZM137.309 12.9575C136.959 16.0377 134.79 18.1262 131.829 17.7899C128.848 17.4513 127.222 14.9317 127.572 11.8515C127.924 8.75148 130.071 6.68058 133.052 7.01912C136.013 7.35541 137.661 9.85739 137.309 12.9575Z" fill="black"/>
<path d="M147.532 16.2002C146.746 19.3847 148.001 21.8984 151.516 22.7655C155.03 23.6326 157.305 22.0103 158.1 18.7869L160.05 10.8839L158.438 10.4863L156.493 18.3699C155.909 20.7388 154.258 21.9178 151.87 21.3286C149.482 20.7393 148.569 18.928 149.153 16.559L151.098 8.6754L149.487 8.27777L147.532 16.2002Z" fill="black"/>
<path d="M168.521 27.6754L170.076 28.2573L174.233 17.1497L178.204 18.6358L178.723 17.2497L169.245 13.7026L168.726 15.0887L172.678 16.5678L168.521 27.6754Z" fill="black"/>
<path d="M200.555 43.6582L201.97 44.5255L208.94 33.151L206.911 31.9075L198.055 38.3971L199.833 27.5711L197.804 26.3276L190.834 37.7021L192.25 38.5694L198.049 29.1049L196.104 40.931L196.684 41.2862L206.354 34.1937L200.555 43.6582Z" fill="black"/>
<path d="M209.12 49.6586L215.958 55.1014L216.88 53.9434L211.34 49.5344L214.205 45.9352L219.635 50.2571L220.557 49.0991L215.127 44.7772L217.805 41.4128L223.344 45.8219L224.266 44.6639L217.427 39.2211L209.12 49.6586Z" fill="black"/>
</svg>
