<svg width="251" height="65" viewBox="0 0 251 65" fill="none" xmlns="http://www.w3.org/2000/svg">
<path d="M12.5264 59.2955L18.6399 54.3555L17.7098 53.2044L12.8873 57.1011L5.43335 47.8762L4.14219 48.9195L12.5264 59.2955Z" fill="black"/>
<path d="M25.1018 49.5873L32.3847 44.7554L31.5665 43.5221L25.6668 47.4363L23.1237 43.6032L28.9067 39.7664L28.0885 38.5332L22.3055 42.3699L19.9283 38.7868L25.8279 34.8727L25.0097 33.6394L17.7268 38.4713L25.1018 49.5873Z" fill="black"/>
<path d="M42.2931 39.0276L43.7584 38.2477L38.1862 27.7782L41.9291 25.7861L41.2338 24.4796L32.3003 29.2343L32.9956 30.5408L36.7209 28.5581L42.2931 39.0276Z" fill="black"/>
<path d="M53.0031 31.5586C54.4937 32.2837 56.401 32.4467 58.5447 31.5595C61.871 30.1828 62.3335 27.8485 61.5916 26.0559C60.5208 23.4688 57.9693 23.7889 55.7332 24.0866C53.9865 24.3117 52.4106 24.531 51.8981 23.2929C51.4163 22.1287 52.1407 20.8981 53.6191 20.2862C54.9681 19.7279 56.4529 19.6545 57.7976 20.2884L58.255 18.7787C56.7689 18.1168 55.0489 18.0927 53.164 18.8728C50.7432 19.8748 49.5058 22.0103 50.3471 24.0431C51.3491 26.4639 53.7776 26.1081 55.9691 25.8072C57.7789 25.5776 59.444 25.3647 60.0559 26.843C60.4459 27.7855 60.2332 29.2589 58.0341 30.169C56.297 30.888 54.6147 30.5886 53.4268 30.0196L53.0031 31.5586Z" fill="black"/>
<path d="M91.7689 21.2181L93.3893 20.8575L90.4916 7.83599L88.1685 8.35295L86.3147 19.174L80.0666 10.1558L77.7435 10.6728L80.6411 23.6943L82.2614 23.3337L79.8504 12.4987L86.6735 22.3519L87.3373 22.2042L89.3578 10.3831L91.7689 21.2181Z" fill="black"/>
<path d="M111.62 18.5086L113.45 18.3205L106.735 5.60016L104.686 5.81068L100.717 19.6286L102.548 19.4406L103.419 16.3755L110.144 15.6847L111.62 18.5086ZM105.872 7.17665L109.495 14.2635L103.745 14.8542L105.872 7.17665Z" fill="black"/>
<path d="M128.964 18.0273L131.024 18.0331L125.004 11.016L130.582 4.69183L128.502 4.68591L122.583 11.5691L122.602 4.66914L120.942 4.66442L120.904 18.0044L122.564 18.0091L122.577 13.5291L123.921 12.0129L128.964 18.0273Z" fill="black"/>
<path d="M138.777 18.4783L147.471 19.3714L147.622 17.8992L140.579 17.1757L141.049 12.5997L147.953 13.3089L148.104 11.8367L141.201 11.1275L141.64 6.85L148.683 7.57351L148.834 6.10126L140.14 5.20811L138.777 18.4783Z" fill="black"/>
<path d="M177.2 25.8336L178.797 26.2857L182.43 13.4499L180.14 12.8017L173.37 21.4447L172.154 10.5413L169.864 9.89308L166.231 22.7288L167.828 23.1809L170.851 12.5005L172.177 24.4119L172.831 24.5971L180.223 15.1531L177.2 25.8336Z" fill="black"/>
<path d="M195.957 32.8749L197.657 33.5785L197.788 19.1951L195.884 18.4073L185.83 28.6835L187.53 29.3872L189.752 27.1034L195.999 29.6886L195.957 32.8749ZM196.279 20.1725L196.103 28.1299L190.762 25.9195L196.279 20.1725Z" fill="black"/>
<path d="M207.115 30.7147C205.118 34.3413 206.458 38.2525 209.787 40.0854C211.696 41.1369 213.734 41.2088 215.486 40.598L217.811 36.3758L212.345 33.366L211.631 34.6625L215.643 36.8716L214.331 39.2543C213.435 39.5141 211.902 39.5607 210.501 38.7889C207.943 37.3805 207.098 34.3125 208.622 31.5444C210.156 28.7587 213.181 27.8673 215.739 29.2757C217.14 30.0474 218.018 31.3981 218.233 32.7493L219.784 32.6677C219.455 30.8196 218.52 29.1175 216.453 27.9792C213.124 26.1464 209.112 27.0882 207.115 30.7147Z" fill="black"/>
<path d="M221.526 46.8857L222.906 47.8073L230.313 36.7124L228.932 35.7907L221.526 46.8857Z" fill="black"/>
<path d="M234.435 56.5858C236.33 58.0907 238.279 58.2085 240.102 57.7146L239.475 56.2207C238.171 56.6409 236.592 56.4093 235.355 55.4268C233.115 53.6483 232.782 50.4979 234.747 48.0232C236.724 45.5328 239.856 45.159 242.096 46.9375C243.333 47.92 243.904 49.4203 243.803 50.77L245.384 51.0297C245.487 49.1959 244.911 47.2833 243.016 45.7784C240.056 43.4279 235.95 43.7427 233.4 46.9536C230.85 50.1645 231.474 54.2353 234.435 56.5858Z" fill="black"/>
</svg>
