<svg width="211" height="57" viewBox="0 0 211 57" fill="none" xmlns="http://www.w3.org/2000/svg">
<path d="M12.3062 51.2974L18.5184 46.482L17.6079 45.3151L12.7077 49.1136L5.41167 39.7634L4.09969 40.7804L12.3062 51.2974Z" fill="black"/>
<path d="M25.1248 41.8995L32.5864 37.3484L31.812 36.0872L25.7676 39.7738L23.3608 35.8537L29.2857 32.24L28.5113 30.9787L22.5864 34.5925L20.3366 30.928L26.381 27.2414L25.6066 25.9801L18.145 30.5311L25.1248 41.8995Z" fill="black"/>
<path d="M42.7814 32.1189L44.2885 31.4229L39.2889 20.6682L43.1382 18.8905L42.5143 17.5485L33.3267 21.7915L33.9506 23.1335L37.7818 21.3642L42.7814 32.1189Z" fill="black"/>
<path d="M53.9668 25.3059C55.4014 26.1395 57.2928 26.444 59.4967 25.7193C62.9166 24.5949 63.5484 22.3029 62.9389 20.4611C62.0591 17.8029 59.4895 17.932 57.2363 18.0623C55.4768 18.1566 53.8882 18.2579 53.4671 16.9857C53.0712 15.7895 53.884 14.617 55.4039 14.1173C56.7909 13.6612 58.2779 13.6986 59.5735 14.4306L60.1402 12.96C58.7054 12.1896 56.9908 12.0375 55.0529 12.6747C52.564 13.4931 51.1734 15.5293 51.8646 17.6179C52.6879 20.1052 55.1373 19.9314 57.3462 19.7946C59.169 19.7006 60.8462 19.6123 61.3489 21.1313C61.6694 22.0996 61.3496 23.5522 59.0887 24.2955C57.3028 24.8828 55.6457 24.4591 54.5018 23.8036L53.9668 25.3059Z" fill="black"/>
<path d="M88.4792 19.3217C90.8813 19.028 92.3327 17.7221 93.2589 16.0776L91.7542 15.4758C91.139 16.6995 89.8668 17.661 88.2985 17.8528C85.4597 18.1999 82.9802 16.2263 82.5944 13.09C82.2062 9.93374 84.1363 7.44103 86.9751 7.09388C88.5435 6.90209 90.0134 7.54845 90.9045 8.56783L92.1989 7.62373C90.9636 6.26361 89.1966 5.3312 86.7945 5.62495C83.0424 6.08377 80.3866 9.22939 80.8871 13.2987C81.3876 17.3681 84.7271 19.7805 88.4792 19.3217Z" fill="black"/>
<path d="M100.594 11.3527C100.541 15.2924 103.16 18.2881 107.12 18.3416C111.059 18.3949 113.779 15.4714 113.833 11.5317C113.887 7.5921 111.247 4.59614 107.307 4.54288C103.348 4.48934 100.648 7.4131 100.594 11.3527ZM112.113 11.5085C112.071 14.6082 110.12 16.902 107.14 16.8617C104.14 16.8212 102.272 14.4757 102.314 11.376C102.356 8.25628 104.288 5.98218 107.287 6.02274C110.267 6.06303 112.156 8.38877 112.113 11.5085Z" fill="black"/>
<path d="M131.251 20.3181L132.833 20.5605L134.866 7.37628L133.225 7.12476L131.619 17.5417L125.633 5.9611L123.953 5.70352L121.92 18.8877L123.561 19.1392L125.201 8.5049L131.251 20.3181Z" fill="black"/>
<path d="M150.548 25.1032L152.082 25.5565L155.884 12.7699L154.292 12.2996L151.288 22.4024L146.927 10.1238L145.297 9.64217L141.494 22.4288L143.086 22.8991L146.153 12.5854L150.548 25.1032Z" fill="black"/>
<path d="M160.402 28.6277L168.41 32.1304L169.006 30.7759L162.519 27.9385L164.373 23.7285L170.731 26.5098L171.328 25.1553L164.97 22.374L166.702 18.4386L173.189 21.276L173.785 19.9215L165.778 16.4189L160.402 28.6277Z" fill="black"/>
<path d="M180.975 39.1746C183.058 40.4066 185.008 40.2589 186.75 39.523L185.927 38.1299C184.689 38.7225 183.092 38.7073 181.733 37.9029C179.271 36.4469 178.516 33.3748 180.133 30.6597C181.76 27.9273 184.817 27.1329 187.278 28.5889C188.638 29.3933 189.406 30.8005 189.488 32.1497L191.092 32.1923C190.947 30.3638 190.118 28.5493 188.035 27.3173C184.782 25.3929 180.75 26.2612 178.653 29.784C176.555 33.3068 177.722 37.2502 180.975 39.1746Z" fill="black"/>
<path d="M194.301 47.8728L195.616 48.8854L202.88 39.5104L206.24 42.0968L207.147 40.9269L199.127 34.7539L198.221 35.9238L201.565 38.4979L194.301 47.8728Z" fill="black"/>
</svg>
