<svg width="260" height="67" viewBox="0 0 260 67" fill="none" xmlns="http://www.w3.org/2000/svg">
<path d="M21.3101 54.0613L22.6157 53.036L14.3762 42.5447L12.5044 44.0147L15.5081 54.5745L5.97688 49.1412L4.10512 50.6112L12.3446 61.1025L13.6501 60.0772L6.79417 51.3476L17.2049 57.2854L17.7397 56.8654L14.4542 45.3317L21.3101 54.0613Z" fill="black"/>
<path d="M29.9297 48.0724L31.3199 47.1654L24.0307 35.9929L22.6404 36.9L29.9297 48.0724Z" fill="black"/>
<path d="M36.7136 41.5374C38.2757 42.0919 40.1893 42.0412 42.2207 40.9206C45.3729 39.1817 45.5723 36.8104 44.6352 35.1118C43.2827 32.6601 40.7828 33.2626 38.5938 33.8077C36.8831 34.2261 35.3414 34.6197 34.6942 33.4464C34.0856 32.3431 34.6683 31.0395 36.0693 30.2666C37.3477 29.5614 38.8151 29.323 40.222 29.8031L40.5083 28.2518C38.9577 27.7596 37.2457 27.9274 35.4595 28.9128C33.1654 30.1783 32.1738 32.4384 33.2364 34.3648C34.502 36.6588 36.8757 36.0346 39.02 35.4913C40.7929 35.0614 42.424 34.6642 43.1968 36.0651C43.6895 36.9583 43.6423 38.4461 41.5584 39.5957C39.9122 40.5038 38.207 40.3938 36.9631 39.9608L36.7136 41.5374Z" fill="black"/>
<path d="M51.8005 33.5648C53.3043 34.2621 55.2143 34.3897 57.3412 33.4629C60.6414 32.0247 61.0605 29.6823 60.2855 27.9038C59.1669 25.3369 56.6218 25.7043 54.3916 26.0434C52.6494 26.3009 51.0778 26.5494 50.5425 25.321C50.0391 24.1659 50.7406 22.9221 52.2074 22.2829C53.5459 21.6996 55.029 21.5987 56.3852 22.2076L56.8146 20.6897C55.3164 20.0554 53.5963 20.0632 51.7262 20.8782C49.3243 21.9248 48.1268 24.0829 49.0056 26.0998C50.0523 28.5016 52.4738 28.1009 54.6594 27.7593C56.4646 27.4963 58.1255 27.2525 58.7647 28.7193C59.1721 29.6543 58.9868 31.1314 56.8049 32.0821C55.0814 32.8332 53.3938 32.565 52.1956 32.0182L51.8005 33.5648Z" fill="black"/>
<path d="M68.9497 28.6075L70.5164 28.0587L66.1056 15.469L64.5389 16.0178L68.9497 28.6075Z" fill="black"/>
<path d="M76.147 19.1196C77.1296 22.9351 80.4437 25.1382 84.2786 24.1506C88.0941 23.168 89.9512 19.6332 88.9686 15.8176C87.986 12.0021 84.6525 9.80405 80.837 10.7867C77.0021 11.7743 75.1643 15.3041 76.147 19.1196ZM87.3029 16.2466C88.0761 19.2487 86.7953 21.9742 83.9095 22.7174C81.0043 23.4656 78.5857 21.6927 77.8126 18.6907C77.0345 15.6693 78.3009 12.9681 81.2061 12.2199C84.0919 11.4767 86.5248 13.2252 87.3029 16.2466Z" fill="black"/>
<path d="M107.999 19.379L109.583 19.1562L107.725 5.94618L106.082 6.17738L107.549 16.6147L98.4764 7.24698L96.7929 7.48375L98.6508 20.6937L100.295 20.4625L98.7961 9.80741L107.999 19.379Z" fill="black"/>
<path d="M137.474 15.7135C138.301 14.6135 138.892 13.3677 139.358 12.3189L138.092 11.7275C137.834 12.4614 137.324 13.6492 136.578 14.7311C136.072 14.1384 135.567 13.5458 135.042 12.9127C134.614 12.402 134.051 11.7279 133.549 10.9753C135.25 10.137 136.992 9.29963 137.041 7.30024C137.082 5.62075 135.806 4.64898 134.086 4.60657C132.187 4.55973 130.695 5.84333 130.651 7.62279C130.628 8.5625 131.023 9.59255 131.597 10.627C130.037 11.4288 128.611 12.454 128.56 14.5333C128.499 17.0126 130.328 18.2981 132.607 18.3543C134.227 18.3942 135.503 17.7455 136.506 16.8099C137.033 17.3631 137.54 17.8758 137.931 18.2455L139.991 18.2963C139.053 17.3729 138.233 16.5524 137.474 15.7135ZM132.19 7.68075C132.218 6.5411 133.078 5.76205 134.117 5.78769C134.997 5.80939 135.664 6.346 135.64 7.3257C135.607 8.6453 134.37 9.31501 132.933 9.99978C132.493 9.18868 132.173 8.38054 132.19 7.68075ZM132.798 17.1186C131.398 17.0841 130.141 16.1328 130.182 14.4733C130.216 13.0937 131.096 12.2952 132.232 11.643C132.734 12.4156 133.296 13.1497 133.82 13.8028C134.188 14.272 134.889 15.0495 135.629 15.868C134.851 16.6091 133.897 17.1457 132.798 17.1186Z" fill="black"/>
<path d="M161.929 20.9664L163.954 21.348L171.712 9.2353L169.844 8.88337L163.289 19.3705L161 7.21634L159.133 6.86441L161.929 20.9664Z" fill="black"/>
<path d="M185.664 26.8768L187.427 27.4037L186.092 13.0818L184.119 12.4919L175.163 23.7385L176.926 24.2654L178.904 21.7672L185.381 23.7029L185.664 26.8768ZM184.691 14.2077L185.326 22.1417L179.788 20.4866L184.691 14.2077Z" fill="black"/>
<path d="M194.44 29.9754L201.721 32.9368L202.279 31.5659L196.535 29.2299L201.004 18.2439L199.466 17.6185L194.44 29.9754Z" fill="black"/>
<path d="M211.454 31.6507C209.925 34.5525 210.538 37.2942 213.741 38.9816C216.943 40.6691 219.542 39.6419 221.089 36.7047L224.884 29.5032L223.415 28.7293L219.63 35.9132C218.493 38.0719 216.607 38.819 214.431 37.6723C212.254 36.5255 211.804 34.5478 212.942 32.3891L216.727 25.2053L215.258 24.4315L211.454 31.6507Z" fill="black"/>
<path d="M226.395 45.9214L233.675 50.7571L234.494 49.5243L228.596 45.6071L231.141 41.7753L236.922 45.6151L237.741 44.3823L231.96 40.5425L234.339 36.9606L240.237 40.8779L241.056 39.645L233.775 34.8093L226.395 45.9214Z" fill="black"/>
<path d="M240.811 53.6082C240.888 55.264 241.657 57.0168 243.462 58.4746C246.262 60.7367 248.533 60.0259 249.752 58.5167C251.512 56.3385 250.01 54.2512 248.678 52.4302C247.645 51.0041 246.698 49.7253 247.54 48.6829C248.332 47.7027 249.759 47.75 251.004 48.7554C252.14 49.6728 252.915 50.9415 253.001 52.4256L254.546 52.1049C254.416 50.4832 253.614 48.9613 252.027 47.6795C249.989 46.0332 247.522 45.9684 246.14 47.6799C244.493 49.718 245.968 51.6803 247.281 53.4606C248.348 54.9399 249.332 56.3002 248.326 57.5448C247.685 58.3383 246.29 58.8565 244.439 57.361C242.976 56.1796 242.434 54.5591 242.365 53.2438L240.811 53.6082Z" fill="black"/>
</svg>
