<svg width="308" height="75" viewBox="0 0 308 75" fill="none" xmlns="http://www.w3.org/2000/svg">
<path d="M19.86 63.4826L21.1599 62.4502L12.837 52.0251L11.5371 53.0574L15.1183 57.5432L9.0102 62.3941L5.42897 57.9083L4.12903 58.9407L12.452 69.3658L13.7519 68.3335L9.93358 63.5507L16.0417 58.6998L19.86 63.4826Z" fill="black"/>
<path d="M25.3961 52.9726C27.2028 55.7101 29.9034 56.4982 32.9305 54.513C35.9576 52.5278 36.3118 49.7603 34.4832 46.9893L29.9996 40.1954L28.6115 41.1057L33.084 47.8829C34.428 49.9195 34.1724 51.9287 32.1153 53.2777C30.0582 54.6268 28.1062 54.0653 26.7622 52.0288L22.2897 45.2516L20.9015 46.1619L25.3961 52.9726Z" fill="black"/>
<path d="M55.1367 41.3593L56.6049 40.5847L50.3492 28.8024L48.2443 29.913L49.3294 40.8279L40.9034 33.7862L38.7984 34.8968L45.0541 46.6791L46.5223 45.9044L41.317 36.1006L50.5199 43.7952L51.1214 43.4779L49.9315 31.5555L55.1367 41.3593Z" fill="black"/>
<path d="M75.1468 32.5355L76.6846 31.9105L71.6343 19.5634L69.4295 20.4596L69.4221 31.4298L61.7404 23.585L59.5356 24.4812L64.5859 36.8283L66.1237 36.2032L61.9214 25.9294L70.311 34.5012L70.941 34.2451L70.9445 22.2618L75.1468 32.5355Z" fill="black"/>
<path d="M85.0666 29.0533L86.6456 28.5409L82.5045 15.8599L80.9255 16.3723L85.0666 29.0533Z" fill="black"/>
<path d="M103.69 23.792L105.242 23.4023L101.974 10.4689L100.364 10.8733L102.946 21.092L92.9149 12.7439L91.2661 13.158L94.5347 26.0914L96.1447 25.687L93.5083 15.255L103.69 23.792Z" fill="black"/>
<path d="M112.342 15.1046C112.988 19.1939 116.445 21.4651 120.199 20.8757C122.353 20.5375 124.007 19.3465 125.017 17.7911L124.264 13.0301L118.1 13.9981L118.331 15.4599L122.855 14.7495L123.28 17.4362C122.731 18.1905 121.549 19.1657 119.968 19.4138C117.083 19.8668 114.534 17.9591 114.041 14.8378C113.545 11.6968 115.388 9.13985 118.273 8.68691C119.854 8.43873 121.375 8.96915 122.373 9.90562L123.55 8.89092C122.156 7.63184 120.373 6.85898 118.042 7.22505C114.288 7.81449 111.696 11.0153 112.342 15.1046Z" fill="black"/>
<path d="M133.631 18.896L139.696 18.471C142.13 18.3004 143.444 16.7447 143.294 14.61C143.181 13.014 141.901 11.6401 140.469 11.5199C141.668 11.1753 142.706 9.97974 142.588 8.3039C142.447 6.30885 140.932 5.0116 138.618 5.17379L132.693 5.58907L133.631 18.896ZM134.755 11.2387L134.453 6.94935L138.443 6.6697C139.939 6.56483 140.805 7.46653 140.889 8.66355C140.975 9.88053 140.242 10.8542 138.745 10.959L134.755 11.2387ZM135.183 17.3036L134.859 12.715L138.929 12.4298C140.565 12.3151 141.479 13.3337 141.565 14.5507C141.665 15.9672 140.809 16.9093 139.253 17.0184L135.183 17.3036Z" fill="black"/>
<path d="M151.536 18.0229L153.196 18.0117L153.105 4.67197L151.445 4.68324L151.536 18.0229Z" fill="black"/>
<path d="M169.174 18.5203L171.131 18.6311L167.845 12.9963C169.671 12.9394 171.383 11.7143 171.519 9.31814C171.658 6.86209 170.009 5.2062 167.573 5.06823L162.221 4.76515L161.466 18.0838L163.124 18.1776L163.424 12.8861L166.079 13.0365L169.174 18.5203ZM169.801 9.22089C169.717 10.7185 168.578 11.7157 167.001 11.6264L163.506 11.4285L163.795 6.33664L167.289 6.53455C168.867 6.62389 169.886 7.72329 169.801 9.22089Z" fill="black"/>
<path d="M179.318 19.3922L183.832 20.0385C187.931 20.6252 191.011 18.1771 191.553 14.4159C192.092 10.6746 189.833 7.42154 185.735 6.83482L181.221 6.18857L179.318 19.3922ZM181.173 18.1626L182.653 7.8887L185.524 8.29969C188.79 8.76737 190.261 11.3216 189.85 14.1722C189.443 17.0029 187.251 19.0328 184.043 18.5736L181.173 18.1626Z" fill="black"/>
<path d="M209.358 23.0758C210.078 24.5677 211.473 25.8764 213.706 26.5073C217.17 27.4863 218.982 25.9407 219.512 24.0747C220.278 21.3815 218.078 20.053 216.138 18.9023C214.628 17.9976 213.256 17.194 213.622 15.9051C213.967 14.6932 215.299 14.176 216.839 14.6111C218.244 15.0081 219.454 15.8698 220.116 17.1997L221.412 16.2982C220.657 14.8586 219.322 13.7749 217.359 13.2202C214.838 12.5077 212.541 13.4175 211.94 15.5336C211.223 18.0537 213.349 19.278 215.255 20.3986C216.818 21.3389 218.256 22.2027 217.819 23.7416C217.54 24.7227 216.458 25.7473 214.168 25.1001C212.359 24.5888 211.225 23.3123 210.646 22.1304L209.358 23.0758Z" fill="black"/>
<path d="M225.801 29.993L227.359 30.5656L229.197 25.5947L232.67 26.871C235.148 27.7817 237.232 26.5871 237.988 24.5425C238.744 22.4978 237.974 20.2546 235.459 19.3301L230.428 17.4812L225.801 29.993ZM236.374 23.9492C235.853 25.356 234.479 25.9589 232.996 25.4139L229.711 24.2065L231.473 19.4419L234.758 20.6493C236.241 21.1943 236.894 22.5423 236.374 23.9492Z" fill="black"/>
<path d="M241.56 36.1577L243.08 36.8243L248.465 24.6193L246.944 23.9528L241.56 36.1577Z" fill="black"/>
<path d="M257.458 43.797L259.2 44.696L258.508 38.2172C260.199 38.9099 262.265 38.4906 263.371 36.3607C264.505 34.1776 263.678 31.9952 261.509 30.8761L256.746 28.4179L250.598 40.2564L252.073 41.0177L254.516 36.3143L256.879 37.5342L257.458 43.797ZM261.842 35.5719C261.151 36.9031 259.703 37.3484 258.299 36.6238L255.189 35.0186L257.539 30.4926L260.649 32.0978C262.053 32.8225 262.534 34.2407 261.842 35.5719Z" fill="black"/>
<path d="M266.341 48.8067L267.765 49.6598L274.652 38.2353L273.228 37.3822L266.341 48.8067Z" fill="black"/>
<path d="M277.505 55.8874L278.874 56.8258L285.607 47.0624L289.105 49.4593L289.945 48.2409L281.597 42.52L280.757 43.7384L284.238 46.124L277.505 55.8874Z" fill="black"/>
<path d="M289.104 61.8603C289.181 63.5136 289.951 65.2633 291.759 66.718C294.563 68.9752 296.837 68.2642 298.059 66.7567C299.821 64.5809 298.317 62.4975 296.984 60.6799C295.949 59.2565 295.001 57.9801 295.844 56.9388C296.637 55.9597 298.067 56.0062 299.313 57.0094C300.451 57.9248 301.226 59.1912 301.313 60.673L302.86 60.3519C302.73 58.7327 301.927 57.2136 300.338 55.9345C298.297 54.2918 295.826 54.2285 294.442 55.938C292.793 57.974 294.269 59.9325 295.584 61.7095C296.652 63.186 297.638 64.5437 296.63 65.787C295.989 66.5797 294.591 67.0978 292.737 65.6055C291.272 64.4267 290.73 62.8089 290.661 61.4956L289.104 61.8603Z" fill="black"/>
</svg>
