<svg width="35" height="432" viewBox="0 0 35 432" fill="none" xmlns="http://www.w3.org/2000/svg">
<path d="M20 94.6896L20 93.2176L9.328 97.5216L9.328 99.1696L20 103.458L20 101.986L17.632 101.042L17.632 95.6336L20 94.6896ZM10.512 98.3376L16.448 96.0336L16.448 100.658L10.512 98.3376ZM20 83.8703L20 82.6703L9.328 82.6703L9.328 83.8703L13.44 83.8703C12.592 84.4943 12.08 85.4383 12.08 86.4783C12.08 88.5103 13.68 89.9183 16.144 89.9183C18.656 89.9183 20.192 88.4943 20.192 86.4783C20.192 85.3903 19.632 84.4463 18.848 83.8703L20 83.8703ZM17.904 83.8703C18.576 84.3023 19.12 85.2303 19.12 86.1903C19.12 87.7423 17.856 88.6703 16.144 88.6703C14.432 88.6703 13.152 87.7423 13.152 86.1903C13.152 85.2303 13.728 84.3023 14.4 83.8703L17.904 83.8703ZM20 75.8032L20 74.4912L12.272 71.2752L12.272 72.5872L18.608 75.1472L12.272 77.7232L12.272 79.0192L20 75.8032ZM16.128 68.0714C18.544 68.0714 20.192 66.4234 20.192 64.1354C20.192 62.8714 19.776 61.8314 19.008 61.0634L18.224 61.6394C18.848 62.2474 19.2 63.1434 19.2 64.0234C19.2 65.6874 17.984 66.7114 16.528 66.8074L16.528 60.5514L16.224 60.5514C13.904 60.5514 12.08 61.9274 12.08 64.2634C12.08 66.4714 13.888 68.0714 16.128 68.0714ZM13.072 64.2794C13.072 62.5194 14.496 61.7514 15.648 61.7354L15.648 66.8074C14.464 66.7434 13.072 65.9274 13.072 64.2794ZM20 56.2078L20 55.0078L14.528 55.0078C13.904 54.6558 13.296 53.6478 13.296 52.9118C13.296 52.7198 13.312 52.5758 13.344 52.4318L12.112 52.4318C12.112 53.4878 12.704 54.3838 13.52 55.0078L12.272 55.0078L12.272 56.2078L20 56.2078ZM20.192 46.5746C20.192 45.8706 19.984 45.4386 19.696 45.1346L18.8 45.4866C18.976 45.6466 19.12 45.9666 19.12 46.3026C19.12 46.8306 18.704 47.0866 18.128 47.0866L13.328 47.0866L13.328 45.5186L12.272 45.5186L12.272 47.0866L10.16 47.0866L10.16 48.2866L12.272 48.2866L12.272 49.5666L13.328 49.5666L13.328 48.2866L18.384 48.2866C19.536 48.2866 20.192 47.7106 20.192 46.5746ZM10.976 40.8314C10.976 40.3834 10.608 40.0154 10.16 40.0154C9.712 40.0154 9.36 40.3834 9.36 40.8314C9.36 41.2634 9.712 41.6314 10.16 41.6314C10.608 41.6314 10.976 41.2634 10.976 40.8314ZM20 41.4234L20 40.2234L12.272 40.2234L12.272 41.4234L20 41.4234ZM18.976 36.1017C19.808 35.3177 20.192 34.2457 20.192 32.9817C20.192 30.9817 19.152 29.9417 17.856 29.9417C16.144 29.9417 15.76 31.4937 15.456 32.8377C15.216 33.8457 14.976 34.7257 14.224 34.7257C13.536 34.7257 13.056 34.0697 13.056 33.0137C13.056 32.0217 13.472 31.1737 14.032 30.7097L13.2 30.1497C12.576 30.7737 12.08 31.7017 12.08 33.0137C12.08 34.8537 13.104 35.8937 14.304 35.8937C15.904 35.8937 16.256 34.4057 16.56 33.0937C16.816 32.0537 17.088 31.1097 17.936 31.1097C18.688 31.1097 19.216 31.7497 19.216 32.9337C19.216 33.9897 18.704 34.9657 18.112 35.4777L18.976 36.1017ZM10.976 25.0002C10.976 24.5522 10.608 24.1842 10.16 24.1842C9.712 24.1842 9.36 24.5522 9.36 25.0002C9.36 25.4322 9.712 25.8002 10.16 25.8002C10.608 25.8002 10.976 25.4322 10.976 25.0002ZM20 25.5922L20 24.3922L12.272 24.3922L12.272 25.5922L20 25.5922ZM20 14.3824L20 13.1824L14.576 13.1824C12.896 13.1824 12.08 14.0304 12.08 15.6464C12.08 16.7984 12.752 17.8544 13.392 18.3984L12.272 18.3984L12.272 19.5984L20 19.5984L20 18.3984L14.352 18.3984C13.728 17.9504 13.152 17.0544 13.152 16.1104C13.152 15.0704 13.584 14.3824 14.944 14.3824L20 14.3824ZM21.984 8.40194C22.88 7.48994 23.136 6.59394 23.136 5.28194C23.136 3.39394 22.336 1.60194 19.776 1.60194L12.272 1.60194L12.272 2.80194L13.44 2.80194C12.592 3.42594 12.08 4.35394 12.08 5.39394C12.08 7.42594 13.616 8.83394 16.096 8.83394C18.592 8.83394 20.096 7.40994 20.096 5.39394C20.096 4.30594 19.504 3.36194 18.72 2.80194L19.824 2.80194C21.52 2.80194 22.144 4.00194 22.144 5.28194C22.144 6.38594 21.856 7.15394 21.088 7.79394L21.984 8.40194ZM17.776 2.80194C18.448 3.21794 19.04 4.14594 19.04 5.10594C19.04 6.65794 17.792 7.58594 16.096 7.58594C14.384 7.58594 13.152 6.65794 13.152 5.10594C13.152 4.14594 13.728 3.21794 14.4 2.80194L17.776 2.80194Z" fill="black"/>
<path d="M19.672 430.8C22.984 430.8 25.208 428.352 25.208 425.312C25.208 423.568 24.472 422.112 23.368 421.12L19.512 421.12L19.512 426.112L20.696 426.112L20.696 422.448L22.872 422.448C23.4 422.976 24.024 424.032 24.024 425.312C24.024 427.648 22.2 429.424 19.672 429.424C17.128 429.424 15.336 427.648 15.336 425.312C15.336 424.032 15.944 422.896 16.808 422.224L16.152 421.168C14.984 422.112 14.152 423.424 14.152 425.312C14.152 428.352 16.36 430.8 19.672 430.8ZM25 416.609L25 415.409L19.528 415.409C18.904 415.057 18.296 414.049 18.296 413.313C18.296 413.121 18.312 412.977 18.344 412.833L17.112 412.833C17.112 413.889 17.704 414.785 18.52 415.409L17.272 415.409L17.272 416.609L25 416.609ZM25 404.096L25 402.896L19.688 402.896C17.816 402.896 17.08 404.256 17.08 405.888C17.08 407.152 17.496 408.144 18.36 408.976L19.192 408.416C18.456 407.728 18.12 406.976 18.12 406.048C18.12 404.928 18.712 404.096 19.752 404.096L21.144 404.096C20.424 404.72 20.088 405.6 20.088 406.656C20.088 407.968 20.904 409.36 22.632 409.36C24.312 409.36 25.192 407.968 25.192 406.656C25.192 405.616 24.824 404.736 24.12 404.096L25 404.096ZM23.368 404.096C24.008 404.56 24.328 405.376 24.328 406.224C24.328 407.344 23.624 408.128 22.648 408.128C21.656 408.128 20.952 407.344 20.952 406.224C20.952 405.376 21.272 404.56 21.912 404.096L23.368 404.096ZM27.944 396.891L23.832 396.891C24.696 396.267 25.192 395.339 25.192 394.283C25.192 392.251 23.624 390.843 21.128 390.843C18.616 390.843 17.08 392.251 17.08 394.283C17.08 395.371 17.64 396.331 18.424 396.891L17.272 396.891L17.272 398.091L27.944 398.091L27.944 396.891ZM21.128 392.107C22.84 392.107 24.12 393.035 24.12 394.587C24.12 395.531 23.544 396.475 22.872 396.891L19.384 396.891C18.712 396.475 18.152 395.531 18.152 394.587C18.152 393.035 19.416 392.107 21.128 392.107ZM25 381.271L25 380.071L19.544 380.071C17.864 380.071 17.08 380.919 17.08 382.535C17.08 383.703 17.752 384.759 18.392 385.303L14.328 385.303L14.328 386.503L25 386.503L25 385.303L19.352 385.303C18.728 384.839 18.152 383.943 18.152 383.015C18.152 381.975 18.552 381.271 19.912 381.271L25 381.271ZM15.976 374.683C15.976 374.235 15.608 373.867 15.16 373.867C14.712 373.867 14.36 374.235 14.36 374.683C14.36 375.115 14.712 375.483 15.16 375.483C15.608 375.483 15.976 375.115 15.976 374.683ZM25 375.275L25 374.075L17.272 374.075L17.272 375.275L25 375.275ZM21.128 369.729C23.432 369.729 25.192 368.177 25.192 365.873C25.192 364.465 24.616 363.633 23.848 363.041L23.112 363.841C23.8 364.353 24.12 365.009 24.12 365.809C24.12 367.457 22.84 368.481 21.128 368.481C19.416 368.481 18.152 367.457 18.152 365.809C18.152 365.009 18.456 364.353 19.16 363.841L18.424 363.041C17.656 363.633 17.08 364.465 17.08 365.873C17.08 368.177 18.84 369.729 21.128 369.729ZM25 352.386L25 348.738C25 345.426 22.712 343.266 19.672 343.266C16.648 343.266 14.328 345.426 14.328 348.738L14.328 352.386L25 352.386ZM23.816 351.058L15.512 351.058L15.512 348.738C15.512 346.098 17.368 344.642 19.672 344.642C21.96 344.642 23.816 346.146 23.816 348.738L23.816 351.058ZM21.128 339.279C23.544 339.279 25.192 337.631 25.192 335.343C25.192 334.079 24.776 333.039 24.008 332.271L23.224 332.847C23.848 333.455 24.2 334.351 24.2 335.231C24.2 336.895 22.984 337.919 21.528 338.015L21.528 331.759L21.224 331.759C18.904 331.759 17.08 333.135 17.08 335.471C17.08 337.679 18.888 339.279 21.128 339.279ZM18.072 335.487C18.072 333.727 19.496 332.959 20.648 332.943L20.648 338.015C19.464 337.951 18.072 337.135 18.072 335.487ZM23.976 328.088C24.808 327.304 25.192 326.232 25.192 324.968C25.192 322.968 24.152 321.928 22.856 321.928C21.144 321.928 20.76 323.48 20.456 324.824C20.216 325.832 19.976 326.712 19.224 326.712C18.536 326.712 18.056 326.056 18.056 325C18.056 324.008 18.472 323.16 19.032 322.696L18.2 322.136C17.576 322.76 17.08 323.688 17.08 325C17.08 326.84 18.104 327.88 19.304 327.88C20.904 327.88 21.256 326.392 21.56 325.08C21.816 324.04 22.088 323.096 22.936 323.096C23.688 323.096 24.216 323.736 24.216 324.92C24.216 325.976 23.704 326.952 23.112 327.464L23.976 328.088ZM15.976 316.986C15.976 316.538 15.608 316.17 15.16 316.17C14.712 316.17 14.36 316.538 14.36 316.986C14.36 317.418 14.712 317.786 15.16 317.786C15.608 317.786 15.976 317.418 15.976 316.986ZM25 317.578L25 316.378L17.272 316.378L17.272 317.578L25 317.578ZM26.984 311.6C27.88 310.688 28.136 309.792 28.136 308.48C28.136 306.592 27.336 304.8 24.776 304.8L17.272 304.8L17.272 306L18.44 306C17.592 306.624 17.08 307.552 17.08 308.592C17.08 310.624 18.616 312.032 21.096 312.032C23.592 312.032 25.096 310.608 25.096 308.592C25.096 307.504 24.504 306.56 23.72 306L24.824 306C26.52 306 27.144 307.2 27.144 308.48C27.144 309.584 26.856 310.352 26.088 310.992L26.984 311.6ZM22.776 306C23.448 306.416 24.04 307.344 24.04 308.304C24.04 309.856 22.792 310.784 21.096 310.784C19.384 310.784 18.152 309.856 18.152 308.304C18.152 307.344 18.728 306.416 19.4 306L22.776 306ZM25 294.781L25 293.581L19.576 293.581C17.896 293.581 17.08 294.429 17.08 296.045C17.08 297.197 17.752 298.253 18.392 298.797L17.272 298.797L17.272 299.997L25 299.997L25 298.797L19.352 298.797C18.728 298.349 18.152 297.453 18.152 296.509C18.152 295.469 18.584 294.781 19.944 294.781L25 294.781Z" fill="black"/>
<path d="M20 250.299L20 248.971L9.328 248.971L9.328 250.299L20 250.299ZM16.128 244.567C18.432 244.567 20.192 243.015 20.192 240.711C20.192 239.303 19.616 238.471 18.848 237.879L18.112 238.679C18.8 239.191 19.12 239.847 19.12 240.647C19.12 242.295 17.84 243.319 16.128 243.319C14.416 243.319 13.152 242.295 13.152 240.647C13.152 239.847 13.456 239.191 14.16 238.679L13.424 237.879C12.656 238.471 12.08 239.303 12.08 240.711C12.08 243.015 13.84 244.567 16.128 244.567ZM20.192 230.421C20.192 228.069 18.368 226.597 16.128 226.597C13.888 226.597 12.08 228.069 12.08 230.421C12.08 232.773 13.888 234.245 16.128 234.245C18.368 234.245 20.192 232.773 20.192 230.421ZM19.12 230.421C19.12 232.069 17.712 232.997 16.128 232.997C14.56 232.997 13.152 232.069 13.152 230.421C13.152 228.773 14.56 227.861 16.128 227.861C17.712 227.861 19.12 228.773 19.12 230.421ZM20 217.025L20 215.825L14.576 215.825C12.896 215.825 12.08 216.673 12.08 218.289C12.08 219.441 12.752 220.497 13.392 221.041L12.272 221.041L12.272 222.241L20 222.241L20 221.041L14.352 221.041C13.728 220.593 13.152 219.697 13.152 218.753C13.152 217.713 13.584 217.025 14.944 217.025L20 217.025ZM20 204.455L20 200.807C20 197.495 17.712 195.335 14.672 195.335C11.648 195.335 9.328 197.495 9.328 200.807L9.328 204.455L20 204.455ZM18.816 203.127L10.512 203.127L10.512 200.807C10.512 198.167 12.368 196.711 14.672 196.711C16.96 196.711 18.816 198.215 18.816 200.807L18.816 203.127ZM16.128 191.348C18.544 191.348 20.192 189.7 20.192 187.412C20.192 186.148 19.776 185.108 19.008 184.34L18.224 184.916C18.848 185.524 19.2 186.42 19.2 187.3C19.2 188.964 17.984 189.988 16.528 190.084L16.528 183.828L16.224 183.828C13.904 183.828 12.08 185.204 12.08 187.54C12.08 189.748 13.888 191.348 16.128 191.348ZM13.072 187.556C13.072 185.796 14.496 185.028 15.648 185.012L15.648 190.084C14.464 190.02 13.072 189.204 13.072 187.556ZM18.976 180.156C19.808 179.372 20.192 178.3 20.192 177.036C20.192 175.036 19.152 173.996 17.856 173.996C16.144 173.996 15.76 175.548 15.456 176.892C15.216 177.9 14.976 178.78 14.224 178.78C13.536 178.78 13.056 178.124 13.056 177.068C13.056 176.076 13.472 175.228 14.032 174.764L13.2 174.204C12.576 174.828 12.08 175.756 12.08 177.068C12.08 178.908 13.104 179.948 14.304 179.948C15.904 179.948 16.256 178.46 16.56 177.148C16.816 176.108 17.088 175.164 17.936 175.164C18.688 175.164 19.216 175.804 19.216 176.988C19.216 178.044 18.704 179.02 18.112 179.532L18.976 180.156ZM10.976 169.055C10.976 168.607 10.608 168.239 10.16 168.239C9.712 168.239 9.36 168.607 9.36 169.055C9.36 169.487 9.712 169.855 10.16 169.855C10.608 169.855 10.976 169.487 10.976 169.055ZM20 169.647L20 168.447L12.272 168.447L12.272 169.647L20 169.647ZM21.984 163.669C22.88 162.757 23.136 161.861 23.136 160.549C23.136 158.661 22.336 156.869 19.776 156.869L12.272 156.869L12.272 158.069L13.44 158.069C12.592 158.693 12.08 159.621 12.08 160.661C12.08 162.693 13.616 164.101 16.096 164.101C18.592 164.101 20.096 162.677 20.096 160.661C20.096 159.573 19.504 158.629 18.72 158.069L19.824 158.069C21.52 158.069 22.144 159.269 22.144 160.549C22.144 161.653 21.856 162.421 21.088 163.061L21.984 163.669ZM17.776 158.069C18.448 158.485 19.04 159.413 19.04 160.373C19.04 161.925 17.792 162.853 16.096 162.853C14.384 162.853 13.152 161.925 13.152 160.373C13.152 159.413 13.728 158.485 14.4 158.069L17.776 158.069ZM20 146.85L20 145.65L14.576 145.65C12.896 145.65 12.08 146.498 12.08 148.114C12.08 149.266 12.752 150.322 13.392 150.866L12.272 150.866L12.272 152.066L20 152.066L20 150.866L14.352 150.866C13.728 150.418 13.152 149.522 13.152 148.578C13.152 147.538 13.584 146.85 14.944 146.85L20 146.85Z" fill="black"/>
</svg>
