<svg width="378" height="94" viewBox="0 0 378 94" fill="none" xmlns="http://www.w3.org/2000/svg">
<path d="M18.058 84.4522C19.8442 82.8194 20.2707 80.9121 20.0736 79.033L18.5001 79.4145C18.707 80.7699 18.2273 82.2922 17.0611 83.3583C14.9501 85.2879 11.7892 85.1153 9.66075 82.7797C7.51878 80.4293 7.64855 77.2758 9.75953 75.3462C10.9257 74.2802 12.4966 73.9552 13.812 74.2703L14.32 72.7492C12.5272 72.3557 10.5488 72.6196 8.76263 74.2523C5.97261 76.8026 5.62955 80.9097 8.39121 83.9401C11.1529 86.9705 15.268 87.0025 18.058 84.4522Z" fill="black"/>
<path d="M34.9476 70.0296L36.3934 68.8916L23.9408 61.7166L22.3221 62.9908L26.3355 76.8085L27.7813 75.6705L26.8835 72.6102L32.1953 68.4291L34.9476 70.0296ZM24.0519 63.5127L30.8899 67.5732L26.3481 71.1482L24.0519 63.5127Z" fill="black"/>
<path d="M50.2936 59.2266L51.6225 58.3356L44.2193 47.2384L42.8406 48.1628L48.6899 56.9308L36.4618 52.4399L35.0498 53.3867L42.453 64.4839L43.8317 63.5594L37.8603 54.6084L50.2936 59.2266Z" fill="black"/>
<path d="M67.4996 48.9537L69.1014 48.0483L57.879 39.068L56.0856 40.0817L57.9582 54.3466L59.56 53.4412L59.1364 50.2806L65.0214 46.9543L67.4996 48.9537ZM57.7164 40.8599L63.8607 45.9103L58.8288 48.7544L57.7164 40.8599Z" fill="black"/>
<path d="M75.755 44.6151L79.8841 42.6802C83.6329 40.9235 84.8693 37.1858 83.2636 33.7417C81.6663 30.3157 77.996 28.833 74.2472 30.5897L70.118 32.5246L75.755 44.6151ZM76.6327 42.5694L72.2466 33.1616L74.8726 31.9311C77.8608 30.5308 80.4891 31.8613 81.7061 34.4715C82.9146 37.0636 82.1926 39.9641 79.2587 41.3388L76.6327 42.5694Z" fill="black"/>
<path d="M93.9463 36.5105L95.4882 35.8954L90.5673 23.4962L89.0254 24.1113L93.9463 36.5105Z" fill="black"/>
<path d="M112.29 29.8849L114.035 29.3012L104.72 18.3507L102.766 19.0042L101.896 33.362L103.641 32.7783L103.826 29.5954L110.236 27.4508L112.29 29.8849ZM104.22 20.0786L109.295 26.2051L103.813 28.0389L104.22 20.0786Z" fill="black"/>
<path d="M130.37 24.8968L131.921 24.5063L128.681 11.5658L127.071 11.971L129.631 22.1953L119.623 13.8453L117.975 14.2602L121.215 27.2007L122.825 26.7956L120.211 16.3578L130.37 24.8968Z" fill="black"/>
<path d="M151.367 20.8175L157.397 20.0345C159.816 19.7202 161.038 18.0894 160.763 15.967C160.558 14.3802 159.201 13.0842 157.765 13.0489C158.941 12.6339 159.908 11.3789 159.693 9.71277C159.437 7.72926 157.849 6.52369 155.548 6.82249L149.658 7.58753L151.367 20.8175ZM152.045 13.1061L151.494 8.84153L155.46 8.32635C156.948 8.13316 157.864 8.98221 158.018 10.1723C158.174 11.3823 157.499 12.3977 156.011 12.5909L152.045 13.1061ZM152.824 19.1359L152.234 14.5739L156.28 14.0484C157.907 13.8372 158.878 14.8001 159.035 16.01C159.217 17.4183 158.417 18.4095 156.87 18.6105L152.824 19.1359Z" fill="black"/>
<path d="M169.158 18.8098L177.003 18.318L176.911 16.8408L170.723 17.2288L169.984 5.39183L168.328 5.49572L169.158 18.8098Z" fill="black"/>
<path d="M184.564 11.3494C184.525 15.2892 187.156 18.2751 191.116 18.3138C195.056 18.3523 197.765 15.4186 197.803 11.4788C197.841 7.53896 195.19 4.55292 191.251 4.51443C187.291 4.47574 184.602 7.40961 184.564 11.3494ZM196.083 11.462C196.053 14.5618 194.11 16.863 191.131 16.8338C188.131 16.8045 186.253 14.4661 186.284 11.3662C186.314 8.24638 188.236 5.96505 191.236 5.99436C194.216 6.02347 196.114 8.34212 196.083 11.462Z" fill="black"/>
<path d="M205.984 11.8662C205.623 15.7896 208.001 18.9812 211.944 19.3443C215.868 19.7056 218.807 17.0038 219.168 13.0804C219.529 9.15689 217.131 5.96355 213.207 5.60222C209.264 5.23907 206.344 7.94271 205.984 11.8662ZM217.455 12.9226C217.171 16.0096 215.047 18.1438 212.08 17.8705C209.092 17.5954 207.413 15.1109 207.696 12.0239C207.982 8.917 210.085 6.80089 213.072 7.07601C216.039 7.3493 217.741 9.81572 217.455 12.9226Z" fill="black"/>
<path d="M226.679 20.808L231.171 21.5894C235.25 22.2988 238.398 19.9433 239.046 16.199C239.69 12.4743 237.525 9.15413 233.446 8.44474L228.953 7.66339L226.679 20.808ZM228.567 19.6342L230.336 9.40615L233.194 9.90307C236.445 10.4685 237.842 13.0664 237.351 15.9042C236.863 18.7223 234.616 20.6862 231.424 20.1311L228.567 19.6342Z" fill="black"/>
<path d="M256.585 25.2209C257.29 26.7225 258.672 28.049 260.896 28.7071C264.349 29.7283 266.173 28.2033 266.721 26.3423C267.512 23.6562 265.326 22.3004 263.399 21.1255C261.899 20.202 260.535 19.3814 260.913 18.096C261.269 16.8872 262.605 16.3856 264.139 16.8395C265.539 17.2537 266.741 18.1305 267.389 19.4694L268.692 18.5827C267.952 17.133 266.628 16.0325 264.672 15.4538C262.16 14.7105 259.857 15.5935 259.236 17.704C258.496 20.2174 260.609 21.4681 262.503 22.6124C264.055 23.5721 265.484 24.4538 265.032 25.9887C264.744 26.9672 263.654 27.9795 261.372 27.3043C259.569 26.771 258.448 25.48 257.881 24.2902L256.585 25.2209Z" fill="black"/>
<path d="M272.956 32.3049L281.154 35.3357L281.665 33.9467L275.024 31.4915L276.612 27.1744L283.121 29.581L283.632 28.1919L277.123 25.7854L278.608 21.7497L285.248 24.2049L285.759 22.8159L277.561 19.7851L272.956 32.3049Z" fill="black"/>
<path d="M295.763 41.5772L297.551 42.381L296.489 35.939C298.214 36.5393 300.249 36.007 301.229 33.8162C302.234 31.5707 301.284 29.4331 299.059 28.4325L294.17 26.2343L288.722 38.4112L290.236 39.092L292.401 34.2541L294.827 35.345L295.763 41.5772ZM299.661 33.1108C299.048 34.48 297.63 35.0047 296.189 34.3567L292.997 32.9214L295.08 28.266L298.272 29.7014C299.713 30.3494 300.273 31.7416 299.661 33.1108Z" fill="black"/>
<path d="M308.44 47.8943L310.253 48.8727L321.298 39.6751L319.626 38.7727L310.216 46.7848L311.706 34.4982L310.034 33.5958L308.44 47.8943Z" fill="black"/>
<path d="M321.417 55.3045L322.831 56.1744L329.796 44.7969L328.382 43.927L321.417 55.3045Z" fill="black"/>
<path d="M334.819 64.3706C336.805 65.7534 338.756 65.747 340.541 65.1376L339.82 63.685C338.547 64.1878 336.959 64.0568 335.662 63.154C333.315 61.5197 332.78 58.3934 334.58 55.7958C336.391 53.1819 339.488 52.6091 341.835 54.2434C343.132 55.1463 343.797 56.6089 343.783 57.9638L345.376 58.1227C345.361 56.2839 344.664 54.4097 342.678 53.0269C339.576 50.8669 335.503 51.4428 333.168 54.813C330.833 58.1832 331.717 62.2106 334.819 64.3706Z" fill="black"/>
<path d="M345.154 71.6647L351.958 77.1506L352.884 75.9961L347.372 71.5522L350.251 67.964L355.654 72.3201L356.58 71.1657L351.177 66.8096L353.868 63.4555L359.379 67.8995L360.305 66.745L353.502 61.2591L345.154 71.6647Z" fill="black"/>
<path d="M358.838 80.5664C358.808 82.2258 359.463 84.0267 361.169 85.5995C363.815 88.0401 366.124 87.476 367.436 86.0466C369.329 83.9835 367.965 81.8011 366.755 79.8959C365.816 78.4044 364.954 77.0657 365.86 76.0783C366.712 75.1499 368.132 75.2891 369.308 76.3738C370.381 77.3636 371.072 78.6811 371.064 80.1696L372.624 79.9486C372.598 78.3198 371.896 76.7476 370.397 75.3646C368.471 73.5884 366.016 73.3649 364.528 74.9859C362.757 76.9164 364.101 78.972 365.295 80.8354C366.265 82.3823 367.158 83.8048 366.076 84.9837C365.387 85.7353 363.963 86.1632 362.213 84.5497C360.831 83.2751 360.395 81.621 360.41 80.3023L358.838 80.5664Z" fill="black"/>
</svg>
