<svg width="215" height="61" viewBox="0 0 215 61" fill="none" xmlns="http://www.w3.org/2000/svg">
<path d="M15.5493 53.3021L16.7958 52.2058L8.95512 43.3073L12.139 40.5072L11.1605 39.3968L3.56133 46.0801L4.53976 47.1905L7.70861 44.4036L15.5493 53.3021Z" fill="black"/>
<path d="M26.089 44.7691L27.4355 43.7983L19.6297 32.9805L18.2832 33.9513L26.089 44.7691Z" fill="black"/>
<path d="M34.1875 39.1296L38.1516 36.8759C41.7507 34.8297 42.6835 31.0095 40.8042 27.7067C38.9349 24.4213 35.1535 23.2352 31.5545 25.2813L27.5904 27.535L34.1875 39.1296ZM34.8987 37.0228L29.7654 28.0009L32.2864 26.5677C35.1552 24.9367 37.8847 26.0536 39.309 28.5568C40.7234 31.0426 40.2364 33.9882 37.4197 35.5895L34.8987 37.0228Z" fill="black"/>
<path d="M51.7217 29.8848L59.8248 26.6096L59.2698 25.2376L52.7057 27.8908L50.9807 23.6264L57.415 21.0258L56.86 19.6538L50.4257 22.2545L48.8132 18.2682L55.3773 15.6151L54.8223 14.2431L46.7192 17.5183L51.7217 29.8848Z" fill="black"/>
<path d="M84.2492 20.3896C86.6318 19.9661 88.011 18.5834 88.8475 16.8909L87.3128 16.3715C86.7642 17.6269 85.5456 18.656 83.99 18.9325C81.1741 19.433 78.5926 17.5964 78.0392 14.4852C77.4822 11.3543 79.2757 8.76048 82.0916 8.26C83.6472 7.98352 85.1495 8.54936 86.0939 9.51905L87.3357 8.50612C86.0294 7.21479 84.215 6.3794 81.8324 6.80288C78.1107 7.46434 75.6277 10.7495 76.3457 14.7862C77.0637 18.8228 80.5275 21.0511 84.2492 20.3896Z" fill="black"/>
<path d="M106.112 18.1311L107.771 18.0715L107.292 4.74007L105.633 4.7997L105.839 10.536L98.0442 10.8162L97.8383 5.0799L96.1793 5.13953L96.658 18.4709L98.317 18.4113L98.0974 12.2953L105.892 12.0151L106.112 18.1311Z" fill="black"/>
<path d="M126.006 19.3476L127.836 19.539L123.871 5.71163L121.823 5.49737L115.106 18.2077L116.936 18.3991L118.417 15.5778L125.14 16.2809L126.006 19.3476ZM122.703 7.07753L124.797 14.7569L119.048 14.1557L122.703 7.07753Z" fill="black"/>
<path d="M142.638 22.6764L144.544 23.1364L142.322 17.0036C144.129 17.2753 146.033 16.3771 146.597 14.0443C147.175 11.6531 145.85 9.72837 143.478 9.15567L138.268 7.8976L135.134 20.8644L136.748 21.254L137.993 16.1023L140.578 16.7266L142.638 22.6764ZM144.925 13.6406C144.572 15.0986 143.274 15.8755 141.738 15.5046L138.336 14.6831L139.534 9.72582L142.936 10.5473C144.472 10.9182 145.277 12.1826 144.925 13.6406Z" fill="black"/>
<path d="M155.425 26.7353L156.977 27.324L161.186 16.2362L165.151 17.7401L165.676 16.3564L156.214 12.7671L155.689 14.1507L159.634 15.6475L155.425 26.7353Z" fill="black"/>
<path d="M167.9 32.0634L169.388 32.7996L175.308 20.8453L173.82 20.109L167.9 32.0634Z" fill="black"/>
<path d="M184.636 41.6563L185.985 42.5159L193.157 31.2676L191.757 30.3757L186.09 39.2631L185.279 26.2494L183.846 25.336L176.674 36.5843L178.074 37.4762L183.859 28.4033L184.636 41.6563Z" fill="black"/>
<path d="M197.011 42.3087C194.309 45.445 194.813 49.5475 197.692 52.0269C199.344 53.4493 201.324 53.9399 203.165 53.7036L206.311 50.0522L201.582 45.9807L200.616 47.1019L204.087 50.0902L202.311 52.1508C201.38 52.2201 199.871 51.9497 198.658 50.9058C196.446 49.0005 196.252 45.8248 198.314 43.431C200.39 41.022 203.535 40.7736 205.748 42.6788C206.96 43.7228 207.54 45.225 207.472 46.5913L209.007 46.8313C209.066 44.9554 208.502 43.0975 206.714 41.5576C203.834 39.0782 199.714 39.1725 197.011 42.3087Z" fill="black"/>
</svg>
