<svg width="30" height="276" viewBox="0 0 30 276" fill="none" xmlns="http://www.w3.org/2000/svg">
<path d="M20 127.664L20 122.8C20 120.848 18.832 119.712 17.12 119.712C15.84 119.712 14.672 120.656 14.496 121.792C14.288 120.816 13.392 119.92 12.048 119.92C10.448 119.92 9.328 121.056 9.328 122.912L9.328 127.664L20 127.664ZM13.952 126.336L10.512 126.336L10.512 123.136C10.512 121.936 11.28 121.296 12.24 121.296C13.216 121.296 13.952 121.936 13.952 123.136L13.952 126.336ZM18.816 126.336L15.136 126.336L15.136 123.072C15.136 121.76 16 121.088 16.976 121.088C18.112 121.088 18.816 121.824 18.816 123.072L18.816 126.336ZM20 115.25L20 114.05L14.528 114.05C13.904 113.698 13.296 112.69 13.296 111.954C13.296 111.762 13.312 111.618 13.344 111.474L12.112 111.474C12.112 112.53 12.704 113.426 13.52 114.05L12.272 114.05L12.272 115.25L20 115.25ZM20 102.737L20 101.537L14.688 101.537C12.816 101.537 12.08 102.897 12.08 104.529C12.08 105.793 12.496 106.785 13.36 107.617L14.192 107.057C13.456 106.369 13.12 105.617 13.12 104.689C13.12 103.569 13.712 102.737 14.752 102.737L16.144 102.737C15.424 103.361 15.088 104.241 15.088 105.297C15.088 106.609 15.904 108.001 17.632 108.001C19.312 108.001 20.192 106.609 20.192 105.297C20.192 104.257 19.824 103.377 19.12 102.737L20 102.737ZM18.368 102.737C19.008 103.201 19.328 104.017 19.328 104.865C19.328 105.985 18.624 106.769 17.648 106.769C16.656 106.769 15.952 105.985 15.952 104.865C15.952 104.017 16.272 103.201 16.912 102.737L18.368 102.737ZM20 91.5152L20 90.3152L14.576 90.3152C12.896 90.3152 12.08 91.1632 12.08 92.7792C12.08 93.9312 12.752 94.9872 13.392 95.5312L12.272 95.5312L12.272 96.7312L20 96.7312L20 95.5312L14.352 95.5312C13.728 95.0832 13.152 94.1872 13.152 93.2432C13.152 92.2032 13.584 91.5152 14.944 91.5152L20 91.5152ZM20 79.9187L20 78.7187L9.328 78.7187L9.328 79.9187L13.44 79.9187C12.592 80.5427 12.08 81.4867 12.08 82.5267C12.08 84.5587 13.68 85.9667 16.144 85.9667C18.656 85.9667 20.192 84.5427 20.192 82.5267C20.192 81.4387 19.632 80.4947 18.848 79.9187L20 79.9187ZM17.904 79.9187C18.576 80.3507 19.12 81.2787 19.12 82.2387C19.12 83.7907 17.856 84.7187 16.144 84.7187C14.432 84.7187 13.152 83.7907 13.152 82.2387C13.152 81.2787 13.728 80.3507 14.4 79.9187L17.904 79.9187ZM20 67.3426L20 66.0146L9.328 66.0146L9.328 67.3426L20 67.3426ZM20 55.5625L20 54.3625L9.328 54.3625L9.328 55.5625L13.44 55.5625C12.592 56.1865 12.08 57.1305 12.08 58.1705C12.08 60.2025 13.68 61.6105 16.144 61.6105C18.656 61.6105 20.192 60.1865 20.192 58.1705C20.192 57.0825 19.632 56.1385 18.848 55.5625L20 55.5625ZM17.904 55.5625C18.576 55.9945 19.12 56.9225 19.12 57.8825C19.12 59.4345 17.856 60.3625 16.144 60.3625C14.432 60.3625 13.152 59.4345 13.152 57.8825C13.152 56.9225 13.728 55.9945 14.4 55.5625L17.904 55.5625ZM16.128 50.0074C18.544 50.0074 20.192 48.3594 20.192 46.0714C20.192 44.8074 19.776 43.7674 19.008 42.9994L18.224 43.5754C18.848 44.1834 19.2 45.0794 19.2 45.9594C19.2 47.6234 17.984 48.6474 16.528 48.7434L16.528 42.4874L16.224 42.4874C13.904 42.4874 12.08 43.8634 12.08 46.1994C12.08 48.4074 13.888 50.0074 16.128 50.0074ZM13.072 46.2154C13.072 44.4554 14.496 43.6874 15.648 43.6714L15.648 48.7434C14.464 48.6794 13.072 47.8634 13.072 46.2154ZM20 32.9277L20 31.7277L14.576 31.7277C12.896 31.7277 12.08 32.5757 12.08 34.1917C12.08 35.3437 12.752 36.3997 13.392 36.9437L12.272 36.9437L12.272 38.1437L20 38.1437L20 36.9437L14.352 36.9437C13.728 36.4957 13.152 35.5997 13.152 34.6557C13.152 33.6157 13.584 32.9277 14.944 32.9277L20 32.9277ZM20.192 24.9792C20.192 24.2752 19.984 23.8432 19.696 23.5392L18.8 23.8912C18.976 24.0512 19.12 24.3712 19.12 24.7072C19.12 25.2352 18.704 25.4912 18.128 25.4912L13.328 25.4912L13.328 23.9232L12.272 23.9232L12.272 25.4912L10.16 25.4912L10.16 26.6912L12.272 26.6912L12.272 27.9712L13.328 27.9712L13.328 26.6912L18.384 26.6912C19.536 26.6912 20.192 26.1152 20.192 24.9792ZM10.976 19.2361C10.976 18.7881 10.608 18.4201 10.16 18.4201C9.712 18.4201 9.35999 18.7881 9.35999 19.2361C9.35999 19.6681 9.712 20.0361 10.16 20.0361C10.608 20.0361 10.976 19.6681 10.976 19.2361ZM20 19.8281L20 18.6281L12.272 18.6281L12.272 19.8281L20 19.8281ZM20.192 11.8824C20.192 11.1784 19.984 10.7464 19.696 10.4424L18.8 10.7944C18.976 10.9544 19.12 11.2744 19.12 11.6104C19.12 12.1384 18.704 12.3944 18.128 12.3944L13.328 12.3944L13.328 10.8264L12.272 10.8264L12.272 12.3944L10.16 12.3944L10.16 13.5944L12.272 13.5944L12.272 14.8744L13.328 14.8744L13.328 13.5944L18.384 13.5944C19.536 13.5944 20.192 13.0184 20.192 11.8824ZM21.936 6.97124L23.024 7.16324C23.088 6.93924 23.136 6.53924 23.136 6.28324C23.12 5.25924 22.688 4.47524 21.568 4.01124L12.272 0.139243L12.272 1.45124L18.608 4.01124L12.272 6.58724L12.272 7.88324L20.08 4.65124L21.248 5.16324C21.888 5.43524 22.064 5.78724 22.064 6.31524C22.064 6.50724 22.016 6.79524 21.936 6.97124Z" fill="black"/>
<path d="M20 266.431L20 264.991L9.328 261.951L9.328 263.423L18.224 265.775L9.328 268.223L9.328 269.327L18.224 271.775L9.328 274.143L9.328 275.615L20 272.575L20 271.135L11.392 268.783L20 266.431ZM16.128 259.203C18.544 259.203 20.192 257.555 20.192 255.267C20.192 254.003 19.776 252.963 19.008 252.195L18.224 252.771C18.848 253.379 19.2 254.275 19.2 255.155C19.2 256.819 17.984 257.843 16.528 257.939L16.528 251.683L16.224 251.683C13.904 251.683 12.08 253.059 12.08 255.395C12.08 257.603 13.888 259.203 16.128 259.203ZM13.072 255.411C13.072 253.651 14.496 252.883 15.648 252.867L15.648 257.939C14.464 257.875 13.072 257.059 13.072 255.411ZM20 247.339L20 246.139L18.848 246.139C19.632 245.563 20.192 244.619 20.192 243.531C20.192 241.515 18.656 240.091 16.144 240.091C13.68 240.091 12.08 241.515 12.08 243.531C12.08 244.587 12.592 245.515 13.44 246.139L9.328 246.139L9.328 247.339L20 247.339ZM17.904 246.139L14.4 246.139C13.728 245.723 13.152 244.779 13.152 243.835C13.152 242.267 14.432 241.339 16.144 241.339C17.856 241.339 19.12 242.267 19.12 243.835C19.12 244.779 18.576 245.723 17.904 246.139ZM20 229.163L20 225.515C20 222.203 17.712 220.043 14.672 220.043C11.648 220.043 9.328 222.203 9.328 225.515L9.328 229.163L20 229.163ZM18.816 227.835L10.512 227.835L10.512 225.515C10.512 222.875 12.368 221.419 14.672 221.419C16.96 221.419 18.816 222.923 18.816 225.515L18.816 227.835ZM16.128 216.056C18.544 216.056 20.192 214.408 20.192 212.12C20.192 210.856 19.776 209.816 19.008 209.048L18.224 209.624C18.848 210.232 19.2 211.128 19.2 212.008C19.2 213.672 17.984 214.696 16.528 214.792L16.528 208.536L16.224 208.536C13.904 208.536 12.08 209.912 12.08 212.248C12.08 214.456 13.888 216.056 16.128 216.056ZM13.072 212.264C13.072 210.504 14.496 209.736 15.648 209.72L15.648 214.792C14.464 214.728 13.072 213.912 13.072 212.264ZM18.976 204.864C19.808 204.08 20.192 203.008 20.192 201.744C20.192 199.744 19.152 198.704 17.856 198.704C16.144 198.704 15.76 200.256 15.456 201.6C15.216 202.608 14.976 203.488 14.224 203.488C13.536 203.488 13.056 202.832 13.056 201.776C13.056 200.784 13.472 199.936 14.032 199.472L13.2 198.912C12.576 199.536 12.08 200.464 12.08 201.776C12.08 203.616 13.104 204.656 14.304 204.656C15.904 204.656 16.256 203.168 16.56 201.856C16.816 200.816 17.088 199.872 17.936 199.872C18.688 199.872 19.216 200.512 19.216 201.696C19.216 202.752 18.704 203.728 18.112 204.24L18.976 204.864ZM10.976 193.763C10.976 193.315 10.608 192.947 10.16 192.947C9.712 192.947 9.36 193.315 9.36 193.763C9.36 194.195 9.712 194.563 10.16 194.563C10.608 194.563 10.976 194.195 10.976 193.763ZM20 194.355L20 193.155L12.272 193.155L12.272 194.355L20 194.355ZM21.984 188.377C22.88 187.465 23.136 186.569 23.136 185.257C23.136 183.369 22.336 181.577 19.776 181.577L12.272 181.577L12.272 182.777L13.44 182.777C12.592 183.401 12.08 184.329 12.08 185.369C12.08 187.401 13.616 188.809 16.096 188.809C18.592 188.809 20.096 187.385 20.096 185.369C20.096 184.281 19.504 183.337 18.72 182.777L19.824 182.777C21.52 182.777 22.144 183.977 22.144 185.257C22.144 186.361 21.856 187.129 21.088 187.769L21.984 188.377ZM17.776 182.777C18.448 183.193 19.04 184.121 19.04 185.081C19.04 186.633 17.792 187.561 16.096 187.561C14.384 187.561 13.152 186.633 13.152 185.081C13.152 184.121 13.728 183.193 14.4 182.777L17.776 182.777ZM20 171.557L20 170.357L14.576 170.357C12.896 170.357 12.08 171.205 12.08 172.821C12.08 173.973 12.752 175.029 13.392 175.573L12.272 175.573L12.272 176.773L20 176.773L20 175.573L14.352 175.573C13.728 175.125 13.152 174.229 13.152 173.285C13.152 172.245 13.584 171.557 14.944 171.557L20 171.557Z" fill="black"/>
</svg>
