<svg width="30" height="448" viewBox="0 0 30 448" fill="none" xmlns="http://www.w3.org/2000/svg">
<path d="M20 127.664L20 122.8C20 120.848 18.832 119.712 17.12 119.712C15.84 119.712 14.672 120.656 14.496 121.792C14.288 120.816 13.392 119.92 12.048 119.92C10.448 119.92 9.328 121.056 9.328 122.912L9.328 127.664L20 127.664ZM13.952 126.336L10.512 126.336L10.512 123.136C10.512 121.936 11.28 121.296 12.24 121.296C13.216 121.296 13.952 121.936 13.952 123.136L13.952 126.336ZM18.816 126.336L15.136 126.336L15.136 123.072C15.136 121.76 16 121.088 16.976 121.088C18.112 121.088 18.816 121.824 18.816 123.072L18.816 126.336ZM20 115.25L20 114.05L14.528 114.05C13.904 113.698 13.296 112.69 13.296 111.954C13.296 111.762 13.312 111.618 13.344 111.474L12.112 111.474C12.112 112.53 12.704 113.426 13.52 114.05L12.272 114.05L12.272 115.25L20 115.25ZM20 102.737L20 101.537L14.688 101.537C12.816 101.537 12.08 102.897 12.08 104.529C12.08 105.793 12.496 106.785 13.36 107.617L14.192 107.057C13.456 106.369 13.12 105.617 13.12 104.689C13.12 103.569 13.712 102.737 14.752 102.737L16.144 102.737C15.424 103.361 15.088 104.241 15.088 105.297C15.088 106.609 15.904 108.001 17.632 108.001C19.312 108.001 20.192 106.609 20.192 105.297C20.192 104.257 19.824 103.377 19.12 102.737L20 102.737ZM18.368 102.737C19.008 103.201 19.328 104.017 19.328 104.865C19.328 105.985 18.624 106.769 17.648 106.769C16.656 106.769 15.952 105.985 15.952 104.865C15.952 104.017 16.272 103.201 16.912 102.737L18.368 102.737ZM20 91.5152L20 90.3152L14.576 90.3152C12.896 90.3152 12.08 91.1632 12.08 92.7792C12.08 93.9312 12.752 94.9872 13.392 95.5312L12.272 95.5312L12.272 96.7312L20 96.7312L20 95.5312L14.352 95.5312C13.728 95.0832 13.152 94.1872 13.152 93.2432C13.152 92.2032 13.584 91.5152 14.944 91.5152L20 91.5152ZM20 79.9187L20 78.7187L9.328 78.7187L9.328 79.9187L13.44 79.9187C12.592 80.5427 12.08 81.4867 12.08 82.5267C12.08 84.5587 13.68 85.9667 16.144 85.9667C18.656 85.9667 20.192 84.5427 20.192 82.5267C20.192 81.4387 19.632 80.4947 18.848 79.9187L20 79.9187ZM17.904 79.9187C18.576 80.3507 19.12 81.2787 19.12 82.2387C19.12 83.7907 17.856 84.7187 16.144 84.7187C14.432 84.7187 13.152 83.7907 13.152 82.2387C13.152 81.2787 13.728 80.3507 14.4 79.9187L17.904 79.9187ZM20 67.3426L20 66.0146L9.328 66.0146L9.328 67.3426L20 67.3426ZM20 55.5625L20 54.3625L9.328 54.3625L9.328 55.5625L13.44 55.5625C12.592 56.1865 12.08 57.1305 12.08 58.1705C12.08 60.2025 13.68 61.6105 16.144 61.6105C18.656 61.6105 20.192 60.1865 20.192 58.1705C20.192 57.0825 19.632 56.1385 18.848 55.5625L20 55.5625ZM17.904 55.5625C18.576 55.9945 19.12 56.9225 19.12 57.8825C19.12 59.4345 17.856 60.3625 16.144 60.3625C14.432 60.3625 13.152 59.4345 13.152 57.8825C13.152 56.9225 13.728 55.9945 14.4 55.5625L17.904 55.5625ZM16.128 50.0074C18.544 50.0074 20.192 48.3594 20.192 46.0714C20.192 44.8074 19.776 43.7674 19.008 42.9994L18.224 43.5754C18.848 44.1834 19.2 45.0794 19.2 45.9594C19.2 47.6234 17.984 48.6474 16.528 48.7434L16.528 42.4874L16.224 42.4874C13.904 42.4874 12.08 43.8634 12.08 46.1994C12.08 48.4074 13.888 50.0074 16.128 50.0074ZM13.072 46.2154C13.072 44.4554 14.496 43.6874 15.648 43.6714L15.648 48.7434C14.464 48.6794 13.072 47.8634 13.072 46.2154ZM20 32.9277L20 31.7277L14.576 31.7277C12.896 31.7277 12.08 32.5757 12.08 34.1917C12.08 35.3437 12.752 36.3997 13.392 36.9437L12.272 36.9437L12.272 38.1437L20 38.1437L20 36.9437L14.352 36.9437C13.728 36.4957 13.152 35.5997 13.152 34.6557C13.152 33.6157 13.584 32.9277 14.944 32.9277L20 32.9277ZM20.192 24.9792C20.192 24.2752 19.984 23.8432 19.696 23.5392L18.8 23.8912C18.976 24.0512 19.12 24.3712 19.12 24.7072C19.12 25.2352 18.704 25.4912 18.128 25.4912L13.328 25.4912L13.328 23.9232L12.272 23.9232L12.272 25.4912L10.16 25.4912L10.16 26.6912L12.272 26.6912L12.272 27.9712L13.328 27.9712L13.328 26.6912L18.384 26.6912C19.536 26.6912 20.192 26.1152 20.192 24.9792ZM10.976 19.2361C10.976 18.7881 10.608 18.4201 10.16 18.4201C9.712 18.4201 9.35999 18.7881 9.35999 19.2361C9.35999 19.6681 9.712 20.0361 10.16 20.0361C10.608 20.0361 10.976 19.6681 10.976 19.2361ZM20 19.8281L20 18.6281L12.272 18.6281L12.272 19.8281L20 19.8281ZM20.192 11.8824C20.192 11.1784 19.984 10.7464 19.696 10.4424L18.8 10.7944C18.976 10.9544 19.12 11.2744 19.12 11.6104C19.12 12.1384 18.704 12.3944 18.128 12.3944L13.328 12.3944L13.328 10.8264L12.272 10.8264L12.272 12.3944L10.16 12.3944L10.16 13.5944L12.272 13.5944L12.272 14.8744L13.328 14.8744L13.328 13.5944L18.384 13.5944C19.536 13.5944 20.192 13.0184 20.192 11.8824ZM21.936 6.97124L23.024 7.16324C23.088 6.93924 23.136 6.53924 23.136 6.28324C23.12 5.25924 22.688 4.47524 21.568 4.01124L12.272 0.139243L12.272 1.45124L18.608 4.01124L12.272 6.58724L12.272 7.88324L20.08 4.65124L21.248 5.16324C21.888 5.43524 22.064 5.78724 22.064 6.31524C22.064 6.50724 22.016 6.79524 21.936 6.97124Z" fill="black"/>
<path d="M20 307.274L20 305.946L15.76 305.946L15.76 302.986C15.76 300.874 14.288 299.642 12.544 299.642C10.8 299.642 9.328 300.842 9.328 302.986L9.328 307.274L20 307.274ZM12.544 301.018C13.744 301.018 14.576 301.882 14.576 303.146L14.576 305.946L10.512 305.946L10.512 303.146C10.512 301.882 11.344 301.018 12.544 301.018ZM20 295.531L20 294.331L14.528 294.331C13.904 293.979 13.296 292.971 13.296 292.235C13.296 292.043 13.312 291.899 13.344 291.755L12.112 291.755C12.112 292.811 12.704 293.707 13.52 294.331L12.272 294.331L12.272 295.531L20 295.531ZM20.192 284.474C20.192 282.122 18.368 280.65 16.128 280.65C13.888 280.65 12.08 282.122 12.08 284.474C12.08 286.826 13.888 288.298 16.128 288.298C18.368 288.298 20.192 286.826 20.192 284.474ZM19.12 284.474C19.12 286.122 17.712 287.05 16.128 287.05C14.56 287.05 13.152 286.122 13.152 284.474C13.152 282.826 14.56 281.914 16.128 281.914C17.712 281.914 19.12 282.826 19.12 284.474ZM20 270.694L20 269.494L9.328 269.494L9.328 270.694L13.44 270.694C12.592 271.318 12.08 272.262 12.08 273.302C12.08 275.334 13.68 276.742 16.144 276.742C18.656 276.742 20.192 275.318 20.192 273.302C20.192 272.214 19.632 271.27 18.848 270.694L20 270.694ZM17.904 270.694C18.576 271.126 19.12 272.054 19.12 273.014C19.12 274.566 17.856 275.494 16.144 275.494C14.432 275.494 13.152 274.566 13.152 273.014C13.152 272.054 13.728 271.126 14.4 270.694L17.904 270.694ZM20 259.475L20 258.275L12.272 258.275L12.272 259.475L17.952 259.475C18.576 259.923 19.12 260.819 19.12 261.763C19.12 262.803 18.72 263.491 17.36 263.491L12.272 263.491L12.272 264.691L17.728 264.691C19.408 264.691 20.192 263.843 20.192 262.227C20.192 261.075 19.584 260.067 18.912 259.475L20 259.475ZM16.128 253.926C18.432 253.926 20.192 252.374 20.192 250.07C20.192 248.662 19.616 247.83 18.848 247.238L18.112 248.038C18.8 248.55 19.12 249.206 19.12 250.006C19.12 251.654 17.84 252.678 16.128 252.678C14.416 252.678 13.152 251.654 13.152 250.006C13.152 249.206 13.456 248.55 14.16 248.038L13.424 247.238C12.656 247.83 12.08 248.662 12.08 250.07C12.08 252.374 13.84 253.926 16.128 253.926ZM20.192 241.204C20.192 240.5 19.984 240.068 19.696 239.764L18.8 240.116C18.976 240.276 19.12 240.596 19.12 240.932C19.12 241.46 18.704 241.716 18.128 241.716L13.328 241.716L13.328 240.148L12.272 240.148L12.272 241.716L10.16 241.716L10.16 242.916L12.272 242.916L12.272 244.196L13.328 244.196L13.328 242.916L18.384 242.916C19.536 242.916 20.192 242.34 20.192 241.204ZM20 229.48L20 225.832C20 222.52 17.712 220.36 14.672 220.36C11.648 220.36 9.328 222.52 9.328 225.832L9.328 229.48L20 229.48ZM18.816 228.152L10.512 228.152L10.512 225.832C10.512 223.192 12.368 221.736 14.672 221.736C16.96 221.736 18.816 223.24 18.816 225.832L18.816 228.152ZM16.128 216.373C18.544 216.373 20.192 214.725 20.192 212.437C20.192 211.173 19.776 210.133 19.008 209.365L18.224 209.941C18.848 210.549 19.2 211.445 19.2 212.325C19.2 213.989 17.984 215.013 16.528 215.109L16.528 208.853L16.224 208.853C13.904 208.853 12.08 210.229 12.08 212.565C12.08 214.773 13.888 216.373 16.128 216.373ZM13.072 212.581C13.072 210.821 14.496 210.053 15.648 210.037L15.648 215.109C14.464 215.045 13.072 214.229 13.072 212.581ZM18.976 205.181C19.808 204.397 20.192 203.325 20.192 202.061C20.192 200.061 19.152 199.021 17.856 199.021C16.144 199.021 15.76 200.573 15.456 201.917C15.216 202.925 14.976 203.805 14.224 203.805C13.536 203.805 13.056 203.149 13.056 202.093C13.056 201.101 13.472 200.253 14.032 199.789L13.2 199.229C12.576 199.853 12.08 200.781 12.08 202.093C12.08 203.933 13.104 204.973 14.304 204.973C15.904 204.973 16.256 203.485 16.56 202.173C16.816 201.133 17.088 200.189 17.936 200.189C18.688 200.189 19.216 200.829 19.216 202.013C19.216 203.069 18.704 204.045 18.112 204.557L18.976 205.181ZM10.976 194.08C10.976 193.632 10.608 193.264 10.16 193.264C9.71199 193.264 9.35999 193.632 9.35999 194.08C9.35999 194.512 9.71199 194.88 10.16 194.88C10.608 194.88 10.976 194.512 10.976 194.08ZM20 194.672L20 193.472L12.272 193.472L12.272 194.672L20 194.672ZM21.984 188.694C22.88 187.782 23.136 186.886 23.136 185.574C23.136 183.686 22.336 181.894 19.776 181.894L12.272 181.894L12.272 183.094L13.44 183.094C12.592 183.718 12.08 184.646 12.08 185.686C12.08 187.718 13.616 189.126 16.096 189.126C18.592 189.126 20.096 187.702 20.096 185.686C20.096 184.598 19.504 183.654 18.72 183.094L19.824 183.094C21.52 183.094 22.144 184.294 22.144 185.574C22.144 186.678 21.856 187.446 21.088 188.086L21.984 188.694ZM17.776 183.094C18.448 183.51 19.04 184.438 19.04 185.398C19.04 186.95 17.792 187.878 16.096 187.878C14.384 187.878 13.152 186.95 13.152 185.398C13.152 184.438 13.728 183.51 14.4 183.094L17.776 183.094ZM20 171.875L20 170.675L14.576 170.675C12.896 170.675 12.08 171.523 12.08 173.139C12.08 174.291 12.752 175.347 13.392 175.891L12.272 175.891L12.272 177.091L20 177.091L20 175.891L14.352 175.891C13.728 175.443 13.152 174.547 13.152 173.603C13.152 172.563 13.584 171.875 14.944 171.875L20 171.875Z" fill="black"/>
<path d="M20 446.429L20 445.101L9.328 445.101L9.328 446.429L20 446.429ZM20 440.248L20 439.048L9.328 439.048L9.328 440.248L20 440.248ZM20 434.255L20 433.055L9.328 433.055L9.328 434.255L20 434.255ZM20 423.045L20 421.845L12.272 421.845L12.272 423.045L17.952 423.045C18.576 423.493 19.12 424.389 19.12 425.333C19.12 426.373 18.72 427.061 17.36 427.061L12.272 427.061L12.272 428.261L17.728 428.261C19.408 428.261 20.192 427.413 20.192 425.797C20.192 424.645 19.584 423.637 18.912 423.045L20 423.045ZM18.976 417.72C19.808 416.936 20.192 415.864 20.192 414.6C20.192 412.6 19.152 411.56 17.856 411.56C16.144 411.56 15.76 413.112 15.456 414.456C15.216 415.464 14.976 416.344 14.224 416.344C13.536 416.344 13.056 415.688 13.056 414.632C13.056 413.64 13.472 412.792 14.032 412.328L13.2 411.768C12.576 412.392 12.08 413.32 12.08 414.632C12.08 416.472 13.104 417.512 14.304 417.512C15.904 417.512 16.256 416.024 16.56 414.712C16.816 413.672 17.088 412.728 17.936 412.728C18.688 412.728 19.216 413.368 19.216 414.552C19.216 415.608 18.704 416.584 18.112 417.096L18.976 417.72ZM20.192 405.259C20.192 404.555 19.984 404.123 19.696 403.819L18.8 404.171C18.976 404.331 19.12 404.651 19.12 404.987C19.12 405.515 18.704 405.771 18.128 405.771L13.328 405.771L13.328 404.203L12.272 404.203L12.272 405.771L10.16 405.771L10.16 406.971L12.272 406.971L12.272 408.251L13.328 408.251L13.328 406.971L18.384 406.971C19.536 406.971 20.192 406.395 20.192 405.259ZM20 400.108L20 398.908L14.528 398.908C13.904 398.556 13.296 397.548 13.296 396.812C13.296 396.62 13.312 396.476 13.344 396.332L12.112 396.332C12.112 397.388 12.704 398.284 13.52 398.908L12.272 398.908L12.272 400.108L20 400.108ZM20 387.595L20 386.395L14.688 386.395C12.816 386.395 12.08 387.755 12.08 389.387C12.08 390.651 12.496 391.643 13.36 392.475L14.192 391.915C13.456 391.227 13.12 390.475 13.12 389.547C13.12 388.427 13.712 387.595 14.752 387.595L16.144 387.595C15.424 388.219 15.088 389.099 15.088 390.155C15.088 391.467 15.904 392.859 17.632 392.859C19.312 392.859 20.192 391.467 20.192 390.155C20.192 389.115 19.824 388.235 19.12 387.595L20 387.595ZM18.368 387.595C19.008 388.059 19.328 388.875 19.328 389.723C19.328 390.843 18.624 391.627 17.648 391.627C16.656 391.627 15.952 390.843 15.952 389.723C15.952 388.875 16.272 388.059 16.912 387.595L18.368 387.595ZM20.192 379.637C20.192 378.933 19.984 378.501 19.696 378.197L18.8 378.549C18.976 378.709 19.12 379.029 19.12 379.365C19.12 379.893 18.704 380.149 18.128 380.149L13.328 380.149L13.328 378.581L12.272 378.581L12.272 380.149L10.16 380.149L10.16 381.349L12.272 381.349L12.272 382.629L13.328 382.629L13.328 381.349L18.384 381.349C19.536 381.349 20.192 380.773 20.192 379.637ZM10.976 373.894C10.976 373.446 10.608 373.078 10.16 373.078C9.712 373.078 9.36 373.446 9.36 373.894C9.36 374.326 9.712 374.694 10.16 374.694C10.608 374.694 10.976 374.326 10.976 373.894ZM20 374.486L20 373.286L12.272 373.286L12.272 374.486L20 374.486ZM20.192 365.116C20.192 362.764 18.368 361.292 16.128 361.292C13.888 361.292 12.08 362.764 12.08 365.116C12.08 367.468 13.888 368.94 16.128 368.94C18.368 368.94 20.192 367.468 20.192 365.116ZM19.12 365.116C19.12 366.764 17.712 367.692 16.128 367.692C14.56 367.692 13.152 366.764 13.152 365.116C13.152 363.468 14.56 362.556 16.128 362.556C17.712 362.556 19.12 363.468 19.12 365.116ZM20 351.72L20 350.52L14.576 350.52C12.896 350.52 12.08 351.368 12.08 352.984C12.08 354.136 12.752 355.192 13.392 355.736L12.272 355.736L12.272 356.936L20 356.936L20 355.736L14.352 355.736C13.728 355.288 13.152 354.392 13.152 353.448C13.152 352.408 13.584 351.72 14.944 351.72L20 351.72Z" fill="black"/>
</svg>
