<svg width="421" height="97" viewBox="0 0 421 97" fill="none" xmlns="http://www.w3.org/2000/svg">
<path d="M19.9838 85.195L21.4019 84.0225L8.80823 77.126L7.22057 78.4386L11.5369 92.1786L12.955 91.0061L11.9901 87.9633L17.2 83.6559L19.9838 85.195ZM8.95929 78.9214L15.8775 82.829L11.4228 86.512L8.95929 78.9214Z" fill="black"/>
<path d="M34.5776 71.841C36.1795 72.2533 38.0774 72.0302 39.9979 70.7287C42.9781 68.7092 42.967 66.3249 41.8855 64.7143C40.3246 62.3898 37.8925 63.2165 35.7645 63.9579C34.1007 64.5297 32.6029 65.0616 31.8559 63.9491C31.1535 62.9031 31.6177 61.5496 32.9423 60.652C34.1509 59.833 35.5886 59.4627 37.0296 59.8149L37.1773 58.2411C35.5923 57.8898 33.9053 58.2116 32.2165 59.356C30.0476 60.8258 29.2613 63.1706 30.4878 64.997C31.9484 67.1721 34.2531 66.3351 36.3368 65.5995C38.0614 65.0106 39.6477 64.4671 40.5397 65.7954C41.1083 66.6422 41.1928 68.1312 39.2225 69.4664C37.6662 70.521 35.9613 70.5651 34.6865 70.2452L34.5776 71.841Z" fill="black"/>
<path d="M50.4603 63.6155L57.9572 59.1228L57.2016 57.8503L51.1286 61.4897L48.7799 57.5345L54.7328 53.9671L53.9771 52.6945L48.0242 56.2619L45.8287 52.5647L51.9017 48.9253L51.146 47.6528L43.6491 52.1454L50.4603 63.6155Z" fill="black"/>
<path d="M65.1314 55.0886L72.082 51.4186L71.3959 50.1073L65.9132 53.0022L60.415 42.4937L58.9471 43.2688L65.1314 55.0886Z" fill="black"/>
<path d="M79.3481 47.8185L80.8547 47.1214L78.3208 41.5946L84.6193 38.6804L84.0025 37.3351L77.704 40.2492L75.9119 36.3405L82.3375 33.3675L81.7207 32.0222L73.7886 35.6922L79.3481 47.8185Z" fill="black"/>
<path d="M104.125 37.2693L105.689 36.7108L103.92 31.7146L107.404 30.4698C109.89 29.5816 110.727 27.329 109.999 25.274C109.272 23.2189 107.245 21.9891 104.721 22.8907L99.6736 24.6941L104.125 37.2693ZM108.379 25.8526C108.88 27.2666 108.21 28.6104 106.722 29.1419L103.426 30.3195L101.731 25.5307L105.027 24.3532C106.515 23.8216 107.879 24.4386 108.379 25.8526Z" fill="black"/>
<path d="M127.571 29.5914L129.452 29.039L124.477 24.8303C126.179 24.1638 127.383 22.4342 126.713 20.1298C126.025 17.7678 123.92 16.7603 121.579 17.448L116.436 18.9586L120.164 31.7671L121.757 31.2992L120.275 26.2104L122.828 25.4608L127.571 29.5914ZM125.062 20.6145C125.481 22.0548 124.742 23.3769 123.226 23.8222L119.867 24.8086L118.442 19.9118L121.8 18.9254C123.316 18.4801 124.643 19.1743 125.062 20.6145Z" fill="black"/>
<path d="M135.463 20.5268C136.322 24.372 139.562 26.676 143.425 25.8053C147.269 24.939 149.238 21.4609 148.379 17.6156C147.52 13.7704 144.261 11.4708 140.417 12.3371C136.554 13.2078 134.604 16.6815 135.463 20.5268ZM146.701 17.9938C147.377 21.0193 146.009 23.7057 143.102 24.3609C140.176 25.0205 137.817 23.1741 137.141 20.1486C136.461 17.1036 137.813 14.4412 140.74 13.7815C143.647 13.1263 146.021 14.9488 146.701 17.9938Z" fill="black"/>
<path d="M169.198 20.8459L170.839 20.596L168.849 7.40529L166.496 7.76351L163.899 18.436L158.29 9.01276L155.938 9.37098L157.928 22.5617L159.569 22.3119L157.913 11.3361L164.037 21.6316L164.709 21.5292L167.542 9.87008L169.198 20.8459Z" fill="black"/>
<path d="M178.59 12.9615C178.904 16.8889 181.791 19.6257 185.738 19.3074C189.665 18.9907 192.101 15.8246 191.787 11.8971C191.473 7.96966 188.566 5.23451 184.639 5.55123C180.692 5.86957 178.276 9.03399 178.59 12.9615ZM190.073 12.0354C190.32 15.1256 188.591 17.5925 185.62 17.8321C182.63 18.0732 180.551 15.9134 180.304 12.8232C180.056 9.71312 181.766 7.26769 184.757 7.02653C187.727 6.78698 189.824 8.92532 190.073 12.0354Z" fill="black"/>
<path d="M203.858 18.1262L205.518 18.0963L205.306 6.23815L209.545 6.16156L209.518 4.68179L199.4 4.86461L199.427 6.34437L203.646 6.26814L203.858 18.1262Z" fill="black"/>
<path d="M217.517 18.1352L219.177 18.1786L219.526 4.84315L217.866 4.79976L217.517 18.1352Z" fill="black"/>
<path d="M227.437 11.7811C227.135 15.7096 229.561 18.8661 233.51 19.1714C237.438 19.4753 240.336 16.7306 240.637 12.8021C240.938 8.87362 238.492 5.71561 234.564 5.41179C230.616 5.10642 227.738 7.85265 227.437 11.7811ZM238.922 12.6695C238.685 15.7604 236.594 17.9256 233.623 17.6958C230.632 17.4644 228.915 15.0047 229.151 11.9138C229.39 8.80288 231.46 6.65612 234.451 6.88746C237.422 7.11726 239.161 9.55859 238.922 12.6695Z" fill="black"/>
<path d="M257.662 21.7254L259.245 21.9559L261.149 8.75245L259.507 8.51338L258.002 18.9455L251.907 7.40734L250.224 7.16251L248.32 20.3659L249.963 20.605L251.499 9.95516L257.662 21.7254Z" fill="black"/>
<path d="M277.387 25.4943L279.187 25.8753L276.662 11.7054L274.646 11.2789L266.664 23.2251L268.464 23.6061L270.226 20.9534L276.84 22.353L277.387 25.4943ZM275.36 12.9427L276.655 20.801L271 19.6043L275.36 12.9427Z" fill="black"/>
<path d="M286.496 27.705L294.08 29.7712L294.465 28.3424L288.483 26.7125L291.575 15.2625L289.973 14.8261L286.496 27.705Z" fill="black"/>
<path d="M315.331 36.7407L316.887 37.3197L320.99 26.1921L324.964 27.6709L325.476 26.2823L315.991 22.7528L315.479 24.1414L319.434 25.6132L315.331 36.7407Z" fill="black"/>
<path d="M330.25 35.3686C328.661 38.9738 329.897 42.7635 333.515 44.3731C337.115 45.9746 340.758 44.3555 342.347 40.7502C343.936 37.145 342.682 33.3472 339.082 31.7457C335.464 30.1361 331.84 31.7634 330.25 35.3686ZM340.776 40.0511C339.525 42.8877 336.835 44.2302 334.112 43.0189C331.371 41.7995 330.571 38.9043 331.822 36.0677C333.08 33.2128 335.744 31.8805 338.485 33.0999C341.208 34.3112 342.034 37.1962 340.776 40.0511Z" fill="black"/>
<path d="M349.706 44.3067C347.874 47.7948 348.847 51.6611 352.346 53.5159C355.827 55.3612 359.572 53.996 361.404 50.508C363.236 47.0199 362.245 43.1442 358.764 41.2988C355.265 39.4441 351.538 40.8187 349.706 44.3067ZM359.884 49.7024C358.442 52.4468 355.667 53.6014 353.034 52.2056C350.384 50.8005 349.784 47.8567 351.225 45.1123C352.676 42.3502 355.425 41.204 358.075 42.6091C360.708 44.0048 361.335 46.9402 359.884 49.7024Z" fill="black"/>
<path d="M365.455 60.561L372.164 64.6564L372.93 63.3901L367.638 60.1596L373.777 50.0118L372.36 49.1469L365.455 60.561Z" fill="black"/>
<path d="M385.615 73.6278L387.31 74.7974L386.288 65.5889L394.442 63.5112L392.73 62.3303L383.98 64.6773L387.873 58.9806L386.506 58.0381L378.98 69.0518L380.346 69.9943L382.874 66.2955L384.835 65.8013L385.615 73.6278Z" fill="black"/>
<path d="M393.624 79.4929L394.946 80.497L402.968 69.8387L401.646 68.8346L393.624 79.4929Z" fill="black"/>
<path d="M404.039 87.7187L405.316 88.7802L412.859 79.628L416.118 82.3393L417.06 81.1972L409.279 74.7259L408.338 75.868L411.582 78.5665L404.039 87.7187Z" fill="black"/>
</svg>
