<svg width="246" height="63" viewBox="0 0 246 63" fill="none" xmlns="http://www.w3.org/2000/svg">
<path d="M12.3925 57.1086L16.0146 54.3384C19.303 51.8233 19.6756 47.9383 17.321 44.9557C14.9788 41.9888 11.0372 41.3529 7.7487 43.8679L4.12661 46.6381L12.3925 57.1086ZM12.794 54.9385L6.36223 46.7913L8.66576 45.0296C11.287 43.0248 14.1702 43.7401 15.9547 46.0006C17.7269 48.2454 17.6711 51.2084 15.0975 53.1768L12.794 54.9385Z" fill="black"/>
<path d="M28.3851 45.5438L35.8509 40.9995L35.0635 39.7464L29.0157 43.4275L26.5685 39.5325L32.4967 35.9241L31.7094 34.6709L25.7812 38.2793L23.4936 34.6383L29.5413 30.9571L28.754 29.704L21.2882 34.2482L28.3851 45.5438Z" fill="black"/>
<path d="M41.3786 35.8325C42.9221 36.4644 44.8455 36.5134 46.935 35.5053C50.1773 33.9409 50.4835 31.5949 49.6186 29.8584C48.3704 27.352 45.8337 27.821 43.6117 28.2491C41.8755 28.5761 40.3102 28.8872 39.7128 27.6877C39.1511 26.5599 39.7945 25.2947 41.2355 24.5994C42.5505 23.965 44.0343 23.8042 45.4253 24.3543L45.7821 22.8277C44.2473 22.2581 42.5211 22.336 40.6838 23.2225C38.3241 24.361 37.2275 26.5554 38.2083 28.5247C39.3763 30.8699 41.7873 30.3728 43.9643 29.9441C45.7635 29.609 47.4187 29.2989 48.1319 30.7311C48.5866 31.6441 48.4728 33.1202 46.3292 34.1544C44.636 34.9713 42.9289 34.7736 41.6995 34.2787L41.3786 35.8325Z" fill="black"/>
<path d="M58.295 30.2681L59.8411 29.664L54.8516 17.2922L53.3054 17.8964L58.295 30.2681Z" fill="black"/>
<path d="M65.0684 20.5968C66.275 24.5571 70.02 26.3501 73.6646 25.2744C75.7554 24.6573 77.2328 23.262 78.0199 21.5909L76.6152 16.9801L70.6304 18.7466L71.0617 20.1623L75.4544 18.8658L76.2471 21.4677C75.8065 22.2859 74.7678 23.4057 73.2332 23.8586C70.4327 24.6853 67.639 23.1327 66.7181 20.1099C65.7913 17.0679 67.2676 14.2967 70.0682 13.4701C71.6027 13.0172 73.1861 13.3422 74.3065 14.1375L75.3335 12.9794C73.7763 11.9168 71.9003 11.3863 69.6368 12.0543C65.9923 13.1301 63.8618 16.6365 65.0684 20.5968Z" fill="black"/>
<path d="M95.9501 20.03L97.5262 19.7542L95.1548 6.62663L93.5196 6.91278L95.3933 17.2849L85.9546 8.2367L84.2801 8.52975L86.6514 21.6573L88.2866 21.3711L86.3738 10.7825L95.9501 20.03Z" fill="black"/>
<path d="M116.341 16.1835C117.448 17.4173 119.153 18.2876 121.473 18.2744C125.073 18.254 126.381 16.2665 126.37 14.3265C126.354 11.5266 123.87 10.8607 121.686 10.2931C119.984 9.84273 118.441 9.45149 118.434 8.11151C118.426 6.85153 119.561 5.98507 121.161 5.97599C122.621 5.9677 124.024 6.45974 125.03 7.55404L126.023 6.32838C124.896 5.15476 123.312 4.48375 121.272 4.49533C118.652 4.51021 116.701 6.02131 116.714 8.22127C116.729 10.8412 119.113 11.4277 121.256 11.9755C123.019 12.4455 124.642 12.8763 124.651 14.4763C124.657 15.4963 123.904 16.7806 121.524 16.7941C119.644 16.8048 118.199 15.893 117.313 14.918L116.341 16.1835Z" fill="black"/>
<path d="M134.003 18.3457L142.707 19.1387L142.845 17.6652L135.795 17.0228L136.225 12.443L143.137 13.0727L143.275 11.5992L136.364 10.9695L136.767 6.68841L143.817 7.33084L143.956 5.85734L135.252 5.06428L134.003 18.3457Z" fill="black"/>
<path d="M158.325 21.6961L160.249 22.0669L157.775 16.0504C159.594 16.2377 161.461 15.2533 161.929 12.8994C162.409 10.4866 161.005 8.62741 158.609 8.16586L153.346 7.15198L150.744 20.2358L152.374 20.5498L153.408 15.3516L156.02 15.8548L158.325 21.6961ZM160.241 12.574C159.948 14.0452 158.681 14.8806 157.129 14.5817L153.692 13.9196L154.687 8.91757L158.124 9.57962C159.675 9.87848 160.533 11.1028 160.241 12.574Z" fill="black"/>
<path d="M171.987 25.1388L173.958 25.7388L183.104 14.5796L181.286 14.0262L173.528 23.7055L172.677 11.4047L170.859 10.8513L171.987 25.1388Z" fill="black"/>
<path d="M186.054 29.9445L187.596 30.5574L192.658 18.215L191.115 17.6021L186.054 29.9445Z" fill="black"/>
<path d="M200.668 36.7018C202.836 37.7782 204.78 37.4933 206.476 36.6388L205.56 35.3131C204.359 35.9895 202.758 36.0876 201.343 35.3848C198.782 34.1126 197.825 31.114 199.266 28.302C200.717 25.4722 203.727 24.4663 206.288 25.7385C207.704 26.4413 208.565 27.7848 208.735 29.1195L210.345 29.0481C210.08 27.2418 209.131 25.4979 206.964 24.4214C203.578 22.74 199.596 23.8884 197.726 27.5369C195.855 31.1854 197.283 35.0204 200.668 36.7018Z" fill="black"/>
<path d="M211.801 42.4484L219.187 47.1203L219.996 45.881L214.013 42.0964L216.527 38.2446L222.393 41.9544L223.202 40.7151L217.336 37.0054L219.687 33.4048L225.671 37.1893L226.48 35.9501L219.093 31.2782L211.801 42.4484Z" fill="black"/>
<path d="M226.334 49.7663C226.425 51.4086 227.215 53.1389 229.046 54.5641C231.886 56.7757 234.168 56.0432 235.383 54.531C237.137 52.3485 235.607 50.2949 234.25 48.5036C233.196 47.1007 232.232 45.8428 233.071 44.7983C233.861 43.8162 235.299 43.8461 236.561 44.8291C237.713 45.726 238.505 46.9758 238.605 48.4475L240.158 48.1109C240.014 46.5031 239.193 45.0024 237.583 43.7491C235.516 42.1396 233.03 42.1048 231.651 43.8196C230.01 45.8619 231.512 47.7916 232.85 49.5428C233.938 50.9982 234.941 52.3364 233.939 53.5835C233.3 54.3786 231.898 54.9095 230.02 53.4474C228.537 52.2924 227.977 50.6907 227.896 49.3862L226.334 49.7663Z" fill="black"/>
</svg>
