<svg width="300" height="74" viewBox="0 0 300 74" fill="none" xmlns="http://www.w3.org/2000/svg">
<path d="M20.3459 61.6511L21.7648 60.5435L16.5519 47.6897L15.1015 48.8219L19.6263 59.3966L10.3718 52.5138L9.28397 53.3629L13.7142 64.0115L4.53854 57.0671L3.0881 58.1993L14.2919 66.3767L15.7108 65.2692L11.4075 54.9783L20.3459 61.6511Z" fill="black"/>
<path d="M26.6211 48.8622C28.7155 52.1994 32.542 53.2925 35.8962 51.1875C39.2334 49.093 39.9299 45.1613 37.8355 41.8241C35.741 38.4868 31.8976 37.4043 28.5604 39.4988C25.2062 41.6038 24.5266 45.525 26.6211 48.8622ZM36.3786 42.7384C38.0265 45.3641 37.6335 48.3498 35.1094 49.9339C32.5684 51.5286 29.7258 50.5736 28.0779 47.9479C26.4194 45.3052 26.8061 42.3471 29.3471 40.7523C31.8712 39.1682 34.7201 40.0957 36.3786 42.7384Z" fill="black"/>
<path d="M55.4215 39.985L57.1692 39.0978L51.4966 35.8767C53.047 34.9102 53.9118 32.9907 52.8254 30.8507C51.7118 28.6572 49.4541 28.0539 47.2784 29.1584L42.499 31.5848L48.5378 43.4797L50.0179 42.7282L47.6187 38.0024L49.9906 36.7982L55.4215 39.985ZM51.2917 31.6293C51.9707 32.9669 51.4875 34.4009 50.0787 35.1162L46.9578 36.7005L44.6492 32.153L47.77 30.5686C49.1789 29.8534 50.6127 30.2918 51.2917 31.6293Z" fill="black"/>
<path d="M72.1143 32.6429L74.0227 31.8673L65.7915 27.6567L68.5552 19.6898L66.6282 20.4729L63.7605 29.0867L61.1625 22.6945L59.6246 23.3195L64.6475 35.6777L66.1853 35.0527L64.4985 30.9024L65.1676 28.9897L72.1143 32.6429Z" fill="black"/>
<path d="M80.0316 27.7064C81.4529 28.5593 83.3385 28.8889 85.5517 28.193C88.9859 27.1131 89.6512 24.8283 89.0693 22.9777C88.2294 20.3066 85.6596 20.4018 83.406 20.5024C81.6463 20.5735 80.0573 20.6539 79.6553 19.3756C79.2774 18.1736 80.1069 17.0113 81.6332 16.5313C83.026 16.0934 84.5115 16.1504 85.7954 16.8998L86.3834 15.436C84.9611 14.6463 83.2498 14.4716 81.3038 15.0835C78.8044 15.8694 77.3846 17.8882 78.0445 19.9869C78.8304 22.4863 81.2808 22.3448 83.4902 22.237C85.3132 22.167 86.9906 22.1008 87.4705 23.6271C87.7765 24.6002 87.4354 26.0492 85.165 26.7631C83.3716 27.327 81.7219 26.8813 80.5885 26.2104L80.0316 27.7064Z" fill="black"/>
<path d="M115.795 18.2172C116.392 16.9768 116.727 15.6395 116.979 14.5198L115.622 14.1873C115.513 14.9574 115.245 16.2219 114.724 17.429C114.113 16.9466 113.501 16.4642 112.863 15.9458C112.344 15.5285 111.659 14.9776 111.02 14.3376C112.525 13.1829 114.069 12.0214 113.726 10.0509C113.438 8.39572 111.997 7.69223 110.302 7.98677C108.43 8.31213 107.218 9.86265 107.523 11.6164C107.684 12.5425 108.272 13.4755 109.038 14.3777C107.664 15.469 106.467 16.7531 106.823 18.8023C107.247 21.2457 109.292 22.1489 111.539 21.7584C113.135 21.481 114.26 20.5953 115.061 19.4817C115.685 19.9212 116.283 20.3248 116.739 20.611L118.769 20.2582C117.669 19.5359 116.704 18.8915 115.795 18.2172ZM109.043 11.3723C108.848 10.2492 109.539 9.31716 110.563 9.13906C111.43 8.98837 112.189 9.38424 112.357 10.3498C112.583 11.6503 111.501 12.5488 110.225 13.5014C109.635 12.792 109.163 12.062 109.043 11.3723ZM111.484 20.5094C110.105 20.7491 108.686 20.0619 108.402 18.4264C108.165 17.0668 108.872 16.1116 109.859 15.2499C110.502 15.9096 111.197 16.5196 111.838 17.0577C112.291 17.4459 113.131 18.0713 114.017 18.7294C113.398 19.6083 112.568 20.321 111.484 20.5094Z" fill="black"/>
<path d="M136.839 18.4253L145.572 18.0798L145.513 16.601L138.439 16.8808L138.257 12.2844L145.192 12.0101L145.133 10.5312L138.198 10.8055L138.029 6.50891L145.103 6.22907L145.044 4.75023L136.311 5.09568L136.839 18.4253Z" fill="black"/>
<path d="M162.946 18.4586L164.944 18.5469L160.072 11.4648L165.233 5.20671L163.215 5.11749L159.043 10.2782L155.323 4.76853L153.305 4.6793L157.913 11.3894L152.416 17.993L154.434 18.0823L158.941 12.596L162.946 18.4586Z" fill="black"/>
<path d="M172.594 19.2629L174.24 19.4746L174.916 14.2179L178.586 14.6899C181.205 15.0267 182.967 13.3981 183.245 11.2359C183.523 9.07374 182.27 7.05743 179.612 6.71557L174.296 6.03186L172.594 19.2629ZM181.539 11.0165C181.348 12.5043 180.144 13.398 178.577 13.1965L175.105 12.75L175.753 7.71152L179.225 8.15797C180.792 8.35951 181.73 9.52878 181.539 11.0165Z" fill="black"/>
<path d="M189.317 21.7338L197.87 23.5299L198.175 22.0814L191.246 20.6265L192.191 16.1247L198.983 17.5509L199.287 16.1024L192.495 14.6763L193.379 10.468L200.308 11.923L200.612 10.4746L192.058 8.67849L189.317 21.7338Z" fill="black"/>
<path d="M213.194 27.7016L215.073 28.259L213.169 22.0198C214.959 22.384 216.907 21.5849 217.589 19.284C218.289 16.9256 217.064 14.9352 214.725 14.2412L209.586 12.7169L205.793 25.5061L207.384 25.9782L208.891 20.897L211.441 21.6535L213.194 27.7016ZM215.94 18.7948C215.514 20.2329 214.177 20.942 212.662 20.4927L209.306 19.4973L210.757 14.6079L214.112 15.6032C215.627 16.0526 216.367 17.3568 215.94 18.7948Z" fill="black"/>
<path d="M222.855 30.9769L224.413 31.5516L229.031 19.0364L227.473 18.4617L222.855 30.9769Z" fill="black"/>
<path d="M232.117 34.5462L240.111 38.0803L240.709 36.7267L234.234 33.8639L236.094 29.6567L242.441 32.463L243.04 31.1094L236.692 28.3031L238.431 24.3703L244.906 27.2332L245.505 25.8796L237.511 22.3455L232.117 34.5462Z" fill="black"/>
<path d="M255.731 46.1799L257.133 46.9503L263.556 35.2582L262.101 34.459L257.026 43.6969L255.37 30.7613L253.88 29.9428L247.457 41.6349L248.912 42.4341L254.092 33.0033L255.731 46.1799Z" fill="black"/>
<path d="M269.758 55.246C271.765 56.5984 273.717 56.5639 275.496 55.9293L274.754 54.4889C273.487 55.0095 271.895 54.9017 270.585 54.0187C268.213 52.4203 267.635 49.3055 269.401 46.6851C271.179 44.048 274.271 43.4312 276.643 45.0296C277.953 45.9126 278.639 47.3638 278.644 48.7173L280.241 48.8529C280.2 47.0166 279.477 45.1547 277.47 43.8023C274.336 41.6897 270.266 42.3239 267.975 45.7238C265.684 49.1237 266.623 53.1334 269.758 55.246Z" fill="black"/>
<path d="M280.158 62.4207L286.972 67.8942L287.899 66.7404L282.379 62.3064L285.26 58.7202L290.671 63.0664L291.598 61.9126L286.187 57.5664L288.88 54.214L294.4 58.6479L295.327 57.4941L288.513 52.0206L280.158 62.4207Z" fill="black"/>
</svg>
